<svg width="40" height="40" viewBox="0 0 40 40" fill="none" xmlns="http://www.w3.org/2000/svg">
<path fill-rule="evenodd" clip-rule="evenodd" d="M17.2826 0.0888521L16.6955 0.166725L16.741 0.421345C16.766 0.561419 16.8143 0.839547 16.8481 1.03948L16.9098 1.40299L17.2687 1.38344C17.4661 1.37278 17.7432 1.34426 17.8843 1.32027C18.1196 1.28021 18.1383 1.25484 18.1086 1.01662C18.0909 0.873717 18.0548 0.584118 18.0285 0.373039C18.0023 0.161959 17.9558 -0.00582286 17.9252 0.000154909C17.8947 0.00613268 17.6054 0.0460384 17.2826 0.0888521ZM14.6628 0.617481C14.4077 0.689376 14.1989 0.782597 14.1989 0.824603C14.1989 0.866528 14.2736 1.15201 14.3649 1.45881C14.4972 1.90359 14.5586 2.00909 14.6674 1.9788C14.7425 1.95787 15.0077 1.8838 15.2567 1.81417L15.7095 1.68766L15.5768 1.10103C15.4241 0.425869 15.3957 0.410844 14.6628 0.617481ZM12.2895 1.4534L11.7113 1.69574L11.9139 2.15466C12.2697 2.9602 12.2046 2.91416 12.6866 2.7009C12.9194 2.5979 13.171 2.49297 13.2458 2.46768C13.3693 2.426 13.3626 2.37099 13.1739 1.872C13.0595 1.56964 12.9438 1.29725 12.9169 1.26663C12.8899 1.2361 12.6076 1.32011 12.2895 1.4534ZM9.93763 2.62383C9.64018 2.79258 9.44373 2.95463 9.46592 3.01263C9.48689 3.06732 9.63671 3.31976 9.79887 3.57357L10.0937 4.03499L10.5529 3.77722C10.8055 3.63545 11.0432 3.49206 11.081 3.45862C11.1504 3.39731 10.6008 2.33092 10.5011 2.33318C10.4716 2.33391 10.2181 2.46469 9.93763 2.62383ZM7.80537 4.06997C7.55028 4.27054 7.34149 4.45658 7.34149 4.4834C7.34149 4.5103 7.51212 4.74335 7.72066 5.00129L8.09992 5.47038L8.30556 5.32077C8.41875 5.23846 8.6352 5.06599 8.78663 4.93755L9.06198 4.70409L8.71023 4.20463C8.51677 3.92997 8.3384 3.70524 8.31387 3.70532C8.28934 3.70532 8.06047 3.86947 7.80537 4.06997ZM18.3941 5.1685C16.6515 5.3673 14.8041 5.92897 13.2502 6.73234C8.76872 9.04929 5.79703 13.3917 5.24868 18.4244C4.66443 23.7876 7.19022 29.2014 11.691 32.2325C16.2071 35.2738 21.8873 35.634 26.7036 33.1846C29.6771 31.6725 31.9648 29.3233 33.3867 26.322C34.306 24.3816 34.7282 22.6743 34.8244 20.5076C35.06 15.1956 32.261 9.9802 27.7004 7.23366C27.0357 6.83331 25.494 6.10507 24.8584 5.89117C22.8189 5.20477 20.4235 4.93699 18.3941 5.1685ZM32.4683 5.27683C32.2703 5.47507 32.2703 5.47531 32.2703 7.21557V8.95599H32.9157H33.5611V8.01449V7.07299L33.7317 7.22688C34.1017 7.56066 34.9789 8.68157 35.6069 9.62307C38.3512 13.738 39.3294 18.8311 38.3193 23.7469C36.6663 31.7919 29.9778 37.7855 21.7482 38.5964C21.2635 38.6442 20.6736 38.6833 20.4372 38.6833H20.0076V39.3416V40L20.9958 39.9443C23.2657 39.8164 25.3278 39.3737 27.3046 38.5901C33.1319 36.28 37.5651 31.3889 39.2435 25.4179C40.8388 19.7423 39.8852 13.6922 36.6268 8.81745C36.2768 8.29383 35.7181 7.53828 35.3852 7.13842L34.7801 6.41139L35.4614 6.38805L36.1427 6.3647V5.72161V5.07851H34.4045C32.6665 5.07851 32.6663 5.07851 32.4683 5.27683ZM5.82591 5.8284L5.40503 6.25516L5.83124 6.6766C6.06568 6.90836 6.27657 7.09803 6.30004 7.09803C6.32344 7.09803 6.53497 6.91232 6.77014 6.6854L7.19772 6.27277L6.76812 5.8372C6.53183 5.59761 6.31795 5.40164 6.2927 5.40164C6.26745 5.40164 6.05745 5.59365 5.82591 5.8284ZM21.729 6.49218C27.8847 7.30014 32.6331 12.0548 33.4401 18.2185C34.3249 24.9771 30.0027 31.3646 23.387 33.0752C16.5493 34.8433 9.46544 31.0174 7.18554 24.325C6.49923 22.3105 6.28544 19.8711 6.61734 17.8419C7.13117 14.6997 8.72209 11.8152 11.073 9.76323C14.0461 7.16807 17.8897 5.98818 21.729 6.49218ZM4.38271 7.44385C4.29541 7.5424 4.11002 7.77198 3.97061 7.95398L3.71721 8.28486L4.24661 8.66614C4.53777 8.87593 4.7827 9.03604 4.79093 9.02198C4.79915 9.00785 4.93421 8.8328 5.09112 8.63286C5.51983 8.08654 5.52887 8.06094 5.34517 7.91497C5.25489 7.84331 5.03715 7.66761 4.86119 7.52463L4.54123 7.2646L4.38271 7.44385ZM18.8378 7.71107C16.4807 8.04963 14.8445 8.64248 13.1395 9.77575C12.1239 10.4508 10.5269 12.0509 9.85074 13.0706C8.89837 14.5071 8.25022 16.1081 7.93542 17.8015C7.73301 18.8899 7.7322 21.0487 7.93373 22.0828C8.44755 24.7199 9.63187 26.9418 11.4669 28.7114C13.3156 30.4942 15.32 31.5336 17.8697 32.0317C18.9044 32.2339 21.0593 32.2327 22.1455 32.0294C24.7189 31.5476 26.783 30.4557 28.6452 28.591C30.5074 26.7264 31.5979 24.6596 32.0791 22.0828C32.2874 20.9673 32.2874 18.9171 32.0791 17.8015C31.598 15.2251 30.5077 13.1587 28.6452 11.2928C26.8185 9.46272 24.8617 8.40337 22.3829 7.90244C21.6108 7.74638 19.4165 7.62795 18.8378 7.71107ZM2.68093 9.91542C2.53757 10.1765 2.42027 10.4305 2.42027 10.4797C2.42027 10.5657 3.30407 11.0563 3.45905 11.0563C3.53787 11.0563 4.03378 10.226 4.03378 10.094C4.03378 10.0143 3.13772 9.44067 3.01324 9.44067C2.97379 9.44067 2.82429 9.65433 2.68093 9.91542ZM1.56753 12.1518C1.24862 12.8738 1.2558 12.8983 1.85005 13.1244C2.13549 13.233 2.40083 13.3112 2.43971 13.2982C2.50183 13.2774 2.90295 12.3827 2.90392 12.2627C2.90432 12.2169 2.52749 12.0211 2.03375 11.8107L1.76817 11.6976L1.56753 12.1518ZM0.696392 14.6765C0.623946 14.9349 0.56473 15.2058 0.56473 15.2786C0.56473 15.4127 0.869038 15.5317 1.46402 15.6301L1.75817 15.6788L1.8816 15.2456C2.09603 14.4934 2.1091 14.5308 1.57318 14.3617C0.859519 14.1367 0.846288 14.1415 0.696392 14.6765ZM23.88 16.0647C24.0797 16.1144 24.3019 16.172 24.3739 16.1928C24.4869 16.2254 24.3733 16.757 23.542 20.0838C23.0126 22.2032 22.5705 23.9461 22.5596 23.957C22.5487 23.9679 22.4148 23.9438 22.262 23.9034C22.1092 23.863 21.8343 23.7911 21.6513 23.7436L21.3185 23.6573L22.2871 19.7781C23.1045 16.5046 23.2761 15.9048 23.3863 15.9366C23.4582 15.9573 23.6803 16.015 23.88 16.0647ZM12.6633 16.1926C12.9836 16.2877 13.2022 16.4293 13.5198 16.7474C14.047 17.2753 14.2451 17.8398 14.1733 18.6099C14.0895 19.5075 13.8794 19.8981 12.7441 21.266L11.6974 22.5271H12.9482H14.1989V23.1734V23.8196H12.1381H10.0771L9.87914 23.6213C9.4877 23.2294 9.55337 23.1026 11.1308 21.2039C11.9282 20.244 12.6433 19.3403 12.7201 19.1956C12.8073 19.031 12.8612 18.7439 12.8637 18.4293C12.8674 17.9663 12.8467 17.9051 12.604 17.6619C12.3769 17.4343 12.2846 17.3976 11.94 17.3976C11.4037 17.3976 11.0555 17.7207 10.9929 18.2763L10.9509 18.6497H10.316H9.68108V18.3412C9.68108 17.1206 10.6893 16.0912 11.9051 16.0703C12.0857 16.0672 12.4269 16.1222 12.6633 16.1926ZM19.1641 16.263L19.3622 16.4612V18.848V21.2346H20.0076H20.653V21.8809V22.5271H20.0076H19.3622V23.1734V23.8196H18.7168H18.0714V23.1734V22.5271H16.6559C15.2605 22.5271 15.2375 22.5243 15.0424 22.3288C14.9314 22.2178 14.8443 22.0362 14.8443 21.9158C14.8443 21.6894 18.032 16.4719 18.3327 16.2061C18.5629 16.0025 18.9291 16.0276 19.1641 16.263ZM30.136 16.263C30.2449 16.3721 30.3341 16.5486 30.3341 16.6553C30.3341 16.762 30.1546 17.1908 29.9352 17.6081C28.9932 19.4004 28.4053 21.6002 28.3995 23.3551L28.3978 23.8196H27.7403H27.0827L27.1362 22.9402C27.2485 21.0866 27.6968 19.3302 28.5457 17.4178C28.5606 17.3845 28.0976 17.3572 27.5171 17.3572H26.4616V17.6803V18.0034H25.8162H25.1708V17.2324C25.1708 16.5213 25.1862 16.4458 25.3689 16.263L25.5668 16.0647H27.7524H29.938L30.136 16.263ZM0.205965 17.1277C0.17676 17.3649 0.134809 17.6539 0.112865 17.7697C0.0754318 17.9673 0.0964881 17.9836 0.451058 18.0323C0.65912 18.0609 0.948423 18.0842 1.09396 18.0842C1.38165 18.0842 1.38423 18.0788 1.49081 17.2659L1.53986 16.8919L1.1531 16.8378C0.940436 16.8079 0.652263 16.7639 0.512775 16.7399C0.259453 16.6962 0.25913 16.6966 0.205965 17.1277ZM17.354 20.1044C16.9942 20.6824 16.6999 21.1732 16.6999 21.195C16.6999 21.2168 17.0084 21.2346 17.3856 21.2346H18.0714V20.1441C18.0714 19.5443 18.0571 19.0536 18.0397 19.0536C18.0223 19.0536 17.7137 19.5265 17.354 20.1044ZM0 19.9422V20.5884H0.645405H1.29081V19.9926V19.3969L1.0387 19.3464C0.900018 19.3186 0.609585 19.2959 0.393294 19.2959H0V19.9422ZM0.56473 21.8739C0.0705105 21.9267 0.0997958 21.8588 0.20056 22.7192L0.256226 23.194L0.709623 23.1406C1.54946 23.0418 1.54655 23.0437 1.49081 22.6185C1.39069 21.8549 1.36955 21.7993 1.18359 21.8133C1.08727 21.8206 0.808774 21.8478 0.56473 21.8739ZM1.06895 24.3678C0.728582 24.453 0.56473 24.5337 0.56473 24.616C0.56473 24.7257 0.807563 25.684 0.849999 25.7416C0.859599 25.7547 1.1443 25.6837 1.48274 25.584C1.95195 25.4457 2.08958 25.373 2.06207 25.2776C2.04222 25.2088 1.96695 24.9435 1.89475 24.688C1.82246 24.4325 1.72065 24.2276 1.66829 24.2326C1.61601 24.2376 1.34632 24.2984 1.06895 24.3678ZM1.85554 26.7875C1.56712 26.9009 1.31993 27.0027 1.3063 27.0135C1.27169 27.0411 1.69379 28.0444 1.77656 28.1315C1.84933 28.2082 2.90416 27.7492 2.90457 27.6408C2.90497 27.5232 2.47779 26.566 2.42834 26.5738C2.40171 26.5779 2.14396 26.6741 1.85554 26.7875ZM2.8844 29.0999C2.62938 29.2391 2.42059 29.386 2.42051 29.4261C2.42035 29.4663 2.55032 29.732 2.70933 30.0167C2.98492 30.5101 3.00654 30.529 3.17322 30.4215C3.26938 30.3596 3.52061 30.2084 3.73149 30.0857L4.11502 29.8625L3.83572 29.3655C3.6822 29.0921 3.50963 28.8635 3.45227 28.8575C3.39491 28.8515 3.13941 28.9606 2.8844 29.0999ZM4.3631 31.1732C3.72472 31.6297 3.73577 31.5978 4.06234 32.0432C4.52857 32.6792 4.51695 32.6767 5.03166 32.2524C5.28151 32.0464 5.48595 31.8524 5.48595 31.8211C5.48595 31.7899 5.32944 31.5626 5.13823 31.316L4.79044 30.8676L4.3631 31.1732ZM5.85625 33.2104L5.39373 33.6345L5.87101 34.1042L6.34829 34.574L6.76675 34.0904L7.18514 33.6068L6.77539 33.1966C6.55006 32.9709 6.35515 32.7863 6.34224 32.7863C6.32941 32.7863 6.1107 32.9772 5.85625 33.2104ZM7.71332 34.9376C7.28961 35.4529 7.28711 35.4413 7.92227 35.9081C8.36712 36.2351 8.33517 36.2462 8.79115 35.607L9.09634 35.1791L8.64851 34.8308C8.40221 34.6394 8.17519 34.4827 8.14405 34.4827C8.11283 34.4827 7.91904 34.6874 7.71332 34.9376ZM9.80072 36.3613C9.63235 36.6387 9.48133 36.8908 9.46511 36.9214C9.43446 36.9793 10.4078 37.5526 10.5359 37.552C10.6514 37.5515 11.1644 36.5001 11.084 36.4287C11.0446 36.3936 10.8085 36.2506 10.5596 36.1109L10.1068 35.8569L9.80072 36.3613ZM12.01 37.6033C11.8766 37.8979 11.7972 38.1672 11.8336 38.2017C11.9198 38.2836 12.9181 38.7002 12.9504 38.6678C13.0198 38.5979 13.3886 37.5219 13.3547 37.488C13.3004 37.4335 12.3993 37.0685 12.3181 37.0681C12.2821 37.0678 12.1435 37.3087 12.01 37.6033ZM14.3731 38.4911C14.2735 38.83 14.2026 39.115 14.2156 39.1247C14.2754 39.1687 15.2323 39.4103 15.3472 39.4103C15.4376 39.4103 15.5034 39.2836 15.5669 38.9876C15.6167 38.7551 15.6772 38.4859 15.7014 38.3895C15.7404 38.2341 15.6916 38.1988 15.2746 38.0806C15.0158 38.0071 14.7478 37.9309 14.679 37.911C14.5838 37.8835 14.5111 38.0213 14.3731 38.4911ZM16.8701 38.9488C16.7323 39.7413 16.7204 39.7149 17.2444 39.7746C17.4995 39.8037 17.7688 39.8441 17.8427 39.8645C18.023 39.9142 18.0417 39.8666 18.1054 39.1955L18.1603 38.6172L17.9344 38.5746C17.81 38.5513 17.5399 38.51 17.334 38.4829L16.9597 38.4337L16.8701 38.9488Z" fill="white"/>
</svg>
