<svg width="33" height="32" viewBox="0 0 33 32" fill="none" xmlns="http://www.w3.org/2000/svg">
<path fill-rule="evenodd" clip-rule="evenodd" d="M16.0185 0.0604858C12.6086 0.3838 9.61298 2.71419 8.44088 5.95537C8.29683 6.35365 8.28896 6.36207 8.09442 6.32632C7.57203 6.23034 6.42905 6.20912 5.91828 6.28601C4.40838 6.51321 3.11851 7.15592 2.04713 8.21484C0.221636 10.0192 -0.432466 12.5473 0.285425 15.0245C1.0028 17.5001 3.2705 19.4849 5.79173 19.8439L6.0875 19.8861L6.10423 23.2446L6.12095 26.6032L16.4991 26.5869L26.8772 26.5707L26.894 23.2259L26.9107 19.8812L27.393 19.8047C28.7089 19.5963 29.9544 18.9452 30.9848 17.9271C31.8952 17.0277 32.4886 15.9978 32.8342 14.7178C32.9817 14.1714 33.0012 13.9772 32.9999 13.0698C32.9986 12.1722 32.9773 11.9622 32.8327 11.4218C31.9998 8.30871 29.3201 6.22288 26.1535 6.22288H25.45L25.3313 5.88536C25.1246 5.29781 24.5177 4.1728 24.1141 3.62923C23.2711 2.49393 22.0002 1.46246 20.7086 0.865397C19.6578 0.379622 18.8166 0.159428 17.6037 0.0525138C16.7963 -0.0186553 16.8557 -0.0189124 16.0185 0.0604858ZM6.13218 29.737C6.15317 31.6216 6.16208 31.6783 6.46831 31.8812C6.66058 32.0085 26.0459 32.0497 26.4339 31.9237C26.8833 31.7775 26.9093 31.6545 26.9094 29.6727L26.9095 27.9529H16.5109H6.1123L6.13218 29.737Z" fill="white"/>
</svg>
