<svg width="34" height="34" viewBox="0 0 34 34" fill="none" xmlns="http://www.w3.org/2000/svg">
<path fill-rule="evenodd" clip-rule="evenodd" d="M3.14157 0.109829C2.86227 0.233938 2.60895 0.501447 2.50119 0.786046C2.44857 0.924966 2.42017 2.10217 2.42017 4.147V7.29415H9.10259H15.785V3.64837V0.00258246L9.5772 0.00554477C4.5735 0.0079753 3.32518 0.0281788 3.14157 0.109829ZM18.215 3.64708V7.29415H24.8998H31.5845L31.5632 4.03361C31.5425 0.87628 31.5369 0.76645 31.3853 0.563426C31.2992 0.448128 31.1344 0.283308 31.019 0.197176C30.8117 0.0423063 30.7379 0.0403317 24.5122 0.0202798L18.215 0V3.64708ZM12.7944 2.6277C13.1928 2.92544 13.3171 3.16811 13.3171 3.64837C13.3171 4.12862 13.1928 4.3713 12.7944 4.66904C12.5966 4.81692 12.4673 4.82702 10.483 4.8495C9.13403 4.86484 8.28172 4.84411 8.10349 4.79163C7.33122 4.56422 7.03393 3.5112 7.56412 2.88101C7.92937 2.44678 8.01548 2.43387 10.4071 2.45331C12.4733 2.47017 12.5956 2.47913 12.7944 2.6277ZM22.3405 2.53671C23.1207 2.86278 23.3109 3.88587 22.7042 4.49282C22.2116 4.98546 21.5083 4.98546 21.0157 4.49282C20.0766 3.5535 21.1128 2.02364 22.3405 2.53671ZM25.9855 2.53671C26.7657 2.86278 26.9559 3.88587 26.3492 4.49282C25.8566 4.98546 25.1532 4.98546 24.6606 4.49282C23.7216 3.5535 24.7578 2.02364 25.9855 2.53671ZM2.42017 13.9781V18.2315H4.58034H6.74058L6.51536 17.7501C5.6695 15.9422 6.05928 13.8228 7.50329 12.3784C9.41575 10.4656 12.4401 10.4645 14.3413 12.3759C15.7917 13.8341 16.1812 15.941 15.3348 17.7501L15.1096 18.2315H17H18.8904L18.6652 17.7501C17.8194 15.9422 18.2091 13.8228 19.6531 12.3784C21.5656 10.4656 24.5899 10.4645 26.4912 12.3759C27.9416 13.8341 28.331 15.941 27.4846 17.7501L27.2594 18.2315H29.4197H31.5798V13.9781V9.72468H17H2.42017V13.9781ZM10.3555 13.4366C9.65602 13.6197 9.03956 14.126 8.72549 14.7756C8.45903 15.3267 8.45759 16.2877 8.72245 16.8264C8.96044 17.3106 9.41583 17.7661 9.89993 18.0041C10.4385 18.269 11.3992 18.2676 11.9502 18.0011C12.4344 17.7668 12.8905 17.3106 13.1247 16.8264C13.3911 16.2752 13.3926 15.3143 13.1277 14.7756C12.8873 14.2867 12.4298 13.8319 11.9502 13.605C11.5434 13.4125 10.7626 13.3301 10.3555 13.4366ZM22.5054 13.4366C21.8059 13.6197 21.1894 14.126 20.8753 14.7756C20.6089 15.3267 20.6074 16.2877 20.8723 16.8264C21.1103 17.3106 21.5657 17.7661 22.0498 18.0041C22.5883 18.269 23.5491 18.2676 24.1001 18.0011C24.5842 17.7668 25.0403 17.3106 25.2745 16.8264C25.541 16.2752 25.5424 15.3143 25.2775 14.7756C25.0372 14.2867 24.5797 13.8319 24.1001 13.605C23.6933 13.4125 22.9125 13.3301 22.5054 13.4366ZM11.4057 14.6893C12.1858 15.0154 12.3761 16.0385 11.7693 16.6454C11.2767 17.1381 10.5734 17.1381 10.0808 16.6454C9.14178 15.7061 10.1779 14.1763 11.4057 14.6893ZM23.5555 14.6893C24.3357 15.0154 24.5259 16.0385 23.9192 16.6454C23.4266 17.1381 22.7233 17.1381 22.2307 16.6454C21.2916 15.7061 22.3278 14.1763 23.5555 14.6893ZM2.42017 21.8706V23.0791L1.59018 23.1049C0.693447 23.1326 0.524564 23.1985 0.184748 23.6532C0.0408479 23.8458 0.026268 23.9865 0.00462606 25.3903C-0.0230908 27.191 0.0651476 27.7362 0.504897 28.4807C0.844257 29.0552 1.51273 29.6947 2.02993 29.9396L2.40703 30.1183L2.43262 31.689C2.46057 33.4102 2.47211 33.4553 2.98096 33.8353C3.27499 34.0549 3.99532 34.0549 4.28935 33.8353C4.79243 33.4596 4.80997 33.395 4.83579 31.8219L4.85933 30.3841H17H29.1407L29.1642 31.8219C29.19 33.395 29.2076 33.4596 29.7106 33.8353C30.0047 34.0549 30.725 34.0549 31.019 33.8353C31.5279 33.4553 31.5394 33.4102 31.5674 31.689L31.593 30.1183L31.9701 29.9396C32.4873 29.6947 33.1557 29.0552 33.4951 28.4807C33.9348 27.7362 34.0231 27.191 33.9954 25.3903C33.9737 23.9865 33.9592 23.8458 33.8153 23.6532C33.4754 23.1985 33.3066 23.1326 32.4098 23.1049L31.5798 23.0791V21.8706V20.662H28.5424H25.5049V21.8773V23.0926H24.2899H23.0749V21.8773V20.662H21.8599H20.645V21.8773V23.0926H19.43H18.215V21.8773V20.662H17H15.785V21.8773V23.0926H14.57H13.355V21.8773V20.662H12.1401H10.9251V21.8773V23.0926H9.71008H8.4951V21.8773V20.662H5.45763H2.42017V21.8706Z" fill="white"/>
</svg>
