<svg width="206" height="52" viewBox="0 0 206 52" fill="none" xmlns="http://www.w3.org/2000/svg">
<path d="M48.4209 29.1517C51.5336 23.2221 45.2067 19.11 36.9346 17.0934C37.557 15.6788 37.7374 13.8271 35.9824 12.0591C33.7318 9.79631 35.2276 6.5 35.2276 6.5C35.2276 6.5 30.5037 10.8574 33.4864 13.8621C34.5865 14.9695 35.1593 15.9421 35.4331 16.7554C33.1495 16.2847 30.8372 15.966 28.5114 15.8015C29.2061 13.9132 29.2736 11.5416 27.0847 9.27063C24.0882 6.15794 26.0837 1.625 26.0837 1.625C26.0837 1.625 19.7844 7.61637 23.7616 11.7471C25.2135 13.2535 25.9781 14.5795 26.3486 15.691C23.8834 15.6171 21.5109 15.7251 19.4033 16.0201C19.6544 14.8054 19.4448 13.4087 18.1049 12.0599C15.8543 9.79712 17.3509 6.5 17.3509 6.5C17.3509 6.5 12.6263 10.8574 15.6098 13.8621C16.5441 14.8029 17.0918 15.6431 17.4062 16.3751C17.0503 16.4531 16.705 16.5376 16.3727 16.6294C6.10107 15.6682 1.62095 17.7905 3.66763 21.9538C0.0958828 25.5255 1.43813 29.6018 5.90769 32.721C8.23957 42.3256 8.84001 50.375 26.403 50.375C42.0745 50.375 44.2398 43.9644 46.1809 35.7598C52.0049 34.6003 50.7642 31.8086 48.4209 29.1517ZM46.969 28.1921C45.0182 32.3521 36.5519 35.4835 26.403 35.4835C16.2549 35.4835 7.78863 32.3521 5.83701 28.1921C5.79557 28.0686 5.75576 27.9403 5.71594 27.8151C6.64544 25.4573 9.66632 23.4114 13.9092 22.0415C12.9123 23.0051 12.7051 24.4441 15.3286 24.9486C16.0794 25.0933 18.1407 24.5928 17.2396 22.035C17.1137 21.6775 16.9081 21.4378 16.6554 21.2932C19.5707 20.6261 22.88 20.2418 26.403 20.2418C26.7979 20.2418 27.1854 20.2556 27.5746 20.2646C25.5418 20.9861 23.8834 23.2091 28.0345 23.8647C28.951 24.0094 31.4673 23.5089 30.3672 20.9511C30.2711 20.7232 30.117 20.5243 29.9203 20.3743C33.8098 20.6602 37.3336 21.4094 40.1822 22.4892C37.6773 22.3494 34.8985 23.8932 39.3486 26.0666C40.3033 26.533 43.2039 26.9612 42.8049 24.1369C42.7761 23.9329 42.7041 23.7373 42.5937 23.5633C44.8711 24.7634 46.4596 26.2186 47.0893 27.8151L46.969 28.1921Z" fill="white"/>
<path d="M20.9926 29.9333C23.6194 29.9333 25.3711 27.5584 26.7434 26.6289C28.6609 25.3289 33.4823 24.8219 29.2362 24.7195C25.2086 24.6228 20.2361 27.8923 16.913 27.6673C11.4107 27.2935 17.0462 29.9333 20.9926 29.9333Z" fill="white"/>
<path d="M26.6687 34.7855C27.5966 34.9643 30.147 34.3451 29.0315 31.1821C27.7713 27.603 20.1427 33.5294 26.6687 34.7855Z" fill="white"/>
<path d="M12.2257 26.9571C11.3393 25.7058 10.0539 24.119 9.52172 24.9453C8.79453 26.0755 8.56541 28.3497 9.09353 28.4505C13.234 29.2443 12.944 27.9703 12.2257 26.9571Z" fill="#FEF5ED"/>
<path d="M36.296 27.4642C37.0427 26.5395 35.5518 24.3141 34.5946 24.7033C33.0964 25.3127 32.2327 24.8999 31.5746 25.8245C30.0333 27.9899 35.2812 28.7195 36.296 27.4642Z" fill="white"/>
<path d="M35.8296 30.1137C34.7555 29.64 35.009 31.2269 33.4222 29.9537C32.2863 29.042 29.8423 31.3414 31.4543 32.903C33.2483 34.641 33.7261 32.9892 34.4801 33.1281C36.0124 33.41 38.6474 31.3569 35.8296 30.1137Z" fill="white"/>
<path d="M17.9692 30.6564C17.4094 30.1056 16.6587 30.7702 16.2346 31.5811C15.8145 31.3747 15.4724 31.3267 15.4724 31.3267C15.1515 30.4119 14.1968 29.7846 14.1968 29.7846C14.1968 29.7846 14.2837 30.7361 14.4097 31.2C13.3551 30.8254 13.3225 28.9404 13.3225 28.9404C13.3225 28.9404 12.6149 29.3637 12.679 30.0828C11.518 29.146 10.5292 29.5839 10.5292 29.5839C10.5292 29.5839 12.0022 30.4127 12.2054 30.9717C11.3782 31.0359 10.8956 31.3219 10.6145 31.9873C10.6153 31.993 12.2492 31.2097 13.4582 31.7752C12.9813 32.1652 13.2185 33.1394 13.2185 33.1394C14.3439 31.9467 15.2425 32.0742 15.9616 32.2879C15.8746 32.6527 15.8803 32.9859 16.0347 33.1882C17.2819 34.8278 21.6263 34.4589 22.7931 33.2467C24.206 31.7801 20.28 32.9306 17.9692 30.6564Z" fill="white"/>
<path d="M21.0381 24.4806C20.6684 25.2232 20.666 25.7839 21.0933 26.3672C21.099 26.3689 21.2656 24.5651 22.3714 23.8176C22.4616 24.427 23.4187 24.7227 23.4187 24.7227C22.6533 22.0123 24.8877 21.8709 24.8772 20.8983C23.6925 20.9983 23.0198 21.8595 23.0198 21.8595C22.07 21.6653 21.0405 22.1618 21.0405 22.1618C21.0405 22.1618 21.9026 22.5753 22.3649 22.7061C21.502 23.4187 19.8673 22.4786 19.8673 22.4786C19.8673 22.4786 19.8673 23.3041 20.5173 23.6169C19.1173 24.1329 18.9857 25.2054 18.9857 25.2054C18.9857 25.2054 20.4531 24.3677 21.0381 24.4806Z" fill="white"/>
<path d="M41.7982 28.1823C42.1346 27.5437 41.6439 26.8799 41.6439 26.8799C41.6439 26.8799 40.889 28.6081 39.7719 28.5488C40.066 28.1685 40.5129 27.3235 40.5129 27.3235C40.5129 27.3235 39.39 27.5372 38.7416 28.2579C38.7416 28.2579 37.6886 27.9662 36.6779 28.5902C37.2482 29.3783 39.1284 28.162 40.1253 30.7961C40.1253 30.7961 40.7184 29.9893 40.4284 29.4458C41.7625 29.3881 42.9699 30.7384 42.9739 30.7336C42.969 30.0104 42.6343 29.5619 41.8941 29.1849C42.2971 28.747 43.9757 28.5479 43.9757 28.5479C43.9757 28.5479 43.2315 27.7639 41.7982 28.1823Z" fill="white"/>
<path d="M67.036 33C66.6253 33 66.288 32.8753 66.024 32.626C65.7747 32.362 65.65 32.0393 65.65 31.658V18.942C65.65 18.5607 65.7747 18.2453 66.024 17.996C66.288 17.732 66.6107 17.6 66.992 17.6H74.142C74.5233 17.6 74.8387 17.7247 75.088 17.974C75.352 18.2087 75.484 18.5167 75.484 18.898C75.484 19.2207 75.352 19.5067 75.088 19.756C74.8387 20.0053 74.5233 20.13 74.142 20.13H68.202L68.4 19.866V24.288L68.246 24.002H73.152C73.5333 24.002 73.8487 24.1267 74.098 24.376C74.362 24.6107 74.494 24.9187 74.494 25.3C74.494 25.6227 74.362 25.9087 74.098 26.158C73.8487 26.4073 73.5333 26.532 73.152 26.532H68.202L68.4 26.334V31.658C68.4 32.0393 68.2607 32.362 67.982 32.626C67.718 32.8753 67.4027 33 67.036 33ZM88.8793 27.126C88.8793 28.3287 88.6079 29.392 88.0653 30.316C87.5373 31.2253 86.8186 31.9367 85.9093 32.45C85.0146 32.9633 84.0099 33.22 82.8953 33.22C81.7806 33.22 80.7686 32.9633 79.8593 32.45C78.9646 31.9367 78.2459 31.2253 77.7033 30.316C77.1753 29.392 76.9113 28.3287 76.9113 27.126C76.9113 25.9233 77.1753 24.8673 77.7033 23.958C78.2459 23.034 78.9646 22.3153 79.8593 21.802C80.7686 21.274 81.7806 21.01 82.8953 21.01C84.0099 21.01 85.0146 21.274 85.9093 21.802C86.8186 22.3153 87.5373 23.034 88.0653 23.958C88.6079 24.8673 88.8793 25.9233 88.8793 27.126ZM86.2393 27.126C86.2393 26.378 86.0853 25.7327 85.7773 25.19C85.4839 24.6327 85.0806 24.2 84.5673 23.892C84.0686 23.584 83.5113 23.43 82.8953 23.43C82.2793 23.43 81.7146 23.584 81.2013 23.892C80.7026 24.2 80.2993 24.6327 79.9913 25.19C79.6979 25.7327 79.5513 26.378 79.5513 27.126C79.5513 27.8593 79.6979 28.5047 79.9913 29.062C80.2993 29.6047 80.7026 30.03 81.2013 30.338C81.7146 30.646 82.2793 30.8 82.8953 30.8C83.5113 30.8 84.0686 30.646 84.5673 30.338C85.0806 30.03 85.4839 29.6047 85.7773 29.062C86.0853 28.5047 86.2393 27.8593 86.2393 27.126ZM102.608 27.126C102.608 28.3287 102.336 29.392 101.794 30.316C101.266 31.2253 100.547 31.9367 99.6378 32.45C98.7431 32.9633 97.7384 33.22 96.6238 33.22C95.5091 33.22 94.4971 32.9633 93.5878 32.45C92.6931 31.9367 91.9744 31.2253 91.4318 30.316C90.9038 29.392 90.6398 28.3287 90.6398 27.126C90.6398 25.9233 90.9038 24.8673 91.4318 23.958C91.9744 23.034 92.6931 22.3153 93.5878 21.802C94.4971 21.274 95.5091 21.01 96.6238 21.01C97.7384 21.01 98.7431 21.274 99.6378 21.802C100.547 22.3153 101.266 23.034 101.794 23.958C102.336 24.8673 102.608 25.9233 102.608 27.126ZM99.9678 27.126C99.9678 26.378 99.8138 25.7327 99.5058 25.19C99.2124 24.6327 98.8091 24.2 98.2958 23.892C97.7971 23.584 97.2398 23.43 96.6238 23.43C96.0078 23.43 95.4431 23.584 94.9298 23.892C94.4311 24.2 94.0278 24.6327 93.7198 25.19C93.4264 25.7327 93.2798 26.378 93.2798 27.126C93.2798 27.8593 93.4264 28.5047 93.7198 29.062C94.0278 29.6047 94.4311 30.03 94.9298 30.338C95.4431 30.646 96.0078 30.8 96.6238 30.8C97.2398 30.8 97.7971 30.646 98.2958 30.338C98.8091 30.03 99.2124 29.6047 99.5058 29.062C99.8138 28.5047 99.9678 27.8593 99.9678 27.126ZM114.554 16.72C114.936 16.72 115.251 16.8447 115.5 17.094C115.75 17.3433 115.874 17.666 115.874 18.062V31.658C115.874 32.0393 115.75 32.362 115.5 32.626C115.251 32.8753 114.936 33 114.554 33C114.173 33 113.858 32.8753 113.608 32.626C113.359 32.362 113.234 32.0393 113.234 31.658V30.58L113.718 30.778C113.718 30.9687 113.616 31.2033 113.41 31.482C113.205 31.746 112.926 32.01 112.574 32.274C112.222 32.538 111.804 32.7653 111.32 32.956C110.851 33.132 110.338 33.22 109.78 33.22C108.768 33.22 107.852 32.9633 107.03 32.45C106.209 31.922 105.556 31.2033 105.072 30.294C104.603 29.37 104.368 28.314 104.368 27.126C104.368 25.9233 104.603 24.8673 105.072 23.958C105.556 23.034 106.202 22.3153 107.008 21.802C107.815 21.274 108.71 21.01 109.692 21.01C110.323 21.01 110.902 21.1053 111.43 21.296C111.958 21.4867 112.413 21.7287 112.794 22.022C113.19 22.3153 113.491 22.616 113.696 22.924C113.916 23.2173 114.026 23.4667 114.026 23.672L113.234 23.958V18.062C113.234 17.6807 113.359 17.3653 113.608 17.116C113.858 16.852 114.173 16.72 114.554 16.72ZM110.11 30.8C110.756 30.8 111.32 30.6387 111.804 30.316C112.288 29.9933 112.662 29.5533 112.926 28.996C113.205 28.4387 113.344 27.8153 113.344 27.126C113.344 26.422 113.205 25.7913 112.926 25.234C112.662 24.6767 112.288 24.2367 111.804 23.914C111.32 23.5913 110.756 23.43 110.11 23.43C109.48 23.43 108.922 23.5913 108.438 23.914C107.954 24.2367 107.573 24.6767 107.294 25.234C107.03 25.7913 106.898 26.422 106.898 27.126C106.898 27.8153 107.03 28.4387 107.294 28.996C107.573 29.5533 107.954 29.9933 108.438 30.316C108.922 30.6387 109.48 30.8 110.11 30.8ZM126.505 33C126.094 33 125.757 32.8753 125.493 32.626C125.243 32.362 125.119 32.0393 125.119 31.658V18.942C125.119 18.5607 125.243 18.2453 125.493 17.996C125.757 17.732 126.079 17.6 126.461 17.6H133.611C133.992 17.6 134.307 17.7247 134.557 17.974C134.821 18.2087 134.953 18.5167 134.953 18.898C134.953 19.2207 134.821 19.5067 134.557 19.756C134.307 20.0053 133.992 20.13 133.611 20.13H127.671L127.869 19.866V24.288L127.715 24.002H132.621C133.002 24.002 133.317 24.1267 133.567 24.376C133.831 24.6107 133.963 24.9187 133.963 25.3C133.963 25.6227 133.831 25.9087 133.567 26.158C133.317 26.4073 133.002 26.532 132.621 26.532H127.671L127.869 26.334V31.658C127.869 32.0393 127.729 32.362 127.451 32.626C127.187 32.8753 126.871 33 126.505 33ZM146.459 21.01C146.84 21.01 147.155 21.1347 147.405 21.384C147.654 21.6333 147.779 21.956 147.779 22.352V31.658C147.779 32.0393 147.654 32.362 147.405 32.626C147.155 32.8753 146.84 33 146.459 33C146.077 33 145.762 32.8753 145.513 32.626C145.263 32.362 145.139 32.0393 145.139 31.658V30.58L145.623 30.778C145.623 30.9687 145.52 31.2033 145.315 31.482C145.109 31.746 144.831 32.01 144.479 32.274C144.127 32.538 143.709 32.7653 143.225 32.956C142.755 33.132 142.242 33.22 141.685 33.22C140.673 33.22 139.756 32.9633 138.935 32.45C138.113 31.922 137.461 31.2033 136.977 30.294C136.507 29.37 136.273 28.314 136.273 27.126C136.273 25.9233 136.507 24.8673 136.977 23.958C137.461 23.034 138.106 22.3153 138.913 21.802C139.719 21.274 140.614 21.01 141.597 21.01C142.227 21.01 142.807 21.1053 143.335 21.296C143.863 21.4867 144.317 21.7287 144.699 22.022C145.095 22.3153 145.395 22.616 145.601 22.924C145.821 23.2173 145.931 23.4667 145.931 23.672L145.139 23.958V22.352C145.139 21.9707 145.263 21.6553 145.513 21.406C145.762 21.142 146.077 21.01 146.459 21.01ZM142.015 30.8C142.66 30.8 143.225 30.6387 143.709 30.316C144.193 29.9933 144.567 29.5533 144.831 28.996C145.109 28.4387 145.249 27.8153 145.249 27.126C145.249 26.422 145.109 25.7913 144.831 25.234C144.567 24.6767 144.193 24.2367 143.709 23.914C143.225 23.5913 142.66 23.43 142.015 23.43C141.384 23.43 140.827 23.5913 140.343 23.914C139.859 24.2367 139.477 24.6767 139.199 25.234C138.935 25.7913 138.803 26.422 138.803 27.126C138.803 27.8153 138.935 28.4387 139.199 28.996C139.477 29.5533 139.859 29.9933 140.343 30.316C140.827 30.6387 141.384 30.8 142.015 30.8ZM155.873 21.01C156.709 21.01 157.435 21.098 158.051 21.274C158.682 21.45 159.166 21.6993 159.503 22.022C159.855 22.33 160.031 22.704 160.031 23.144C160.031 23.4373 159.943 23.716 159.767 23.98C159.591 24.2293 159.334 24.354 158.997 24.354C158.762 24.354 158.564 24.3247 158.403 24.266C158.256 24.1927 158.124 24.1047 158.007 24.002C157.89 23.8993 157.75 23.804 157.589 23.716C157.442 23.628 157.215 23.562 156.907 23.518C156.614 23.4593 156.394 23.43 156.247 23.43C155.499 23.43 154.861 23.5913 154.333 23.914C153.82 24.2367 153.424 24.6767 153.145 25.234C152.866 25.7767 152.727 26.4073 152.727 27.126C152.727 27.83 152.866 28.4607 153.145 29.018C153.438 29.5607 153.834 29.9933 154.333 30.316C154.846 30.6387 155.433 30.8 156.093 30.8C156.46 30.8 156.775 30.778 157.039 30.734C157.303 30.69 157.523 30.624 157.699 30.536C157.904 30.4187 158.088 30.294 158.249 30.162C158.41 30.03 158.652 29.964 158.975 29.964C159.356 29.964 159.65 30.0887 159.855 30.338C160.06 30.5727 160.163 30.866 160.163 31.218C160.163 31.5847 159.958 31.922 159.547 32.23C159.136 32.5233 158.594 32.7653 157.919 32.956C157.259 33.132 156.54 33.22 155.763 33.22C154.604 33.22 153.6 32.956 152.749 32.428C151.898 31.8853 151.238 31.152 150.769 30.228C150.314 29.304 150.087 28.27 150.087 27.126C150.087 25.9233 150.329 24.8673 150.813 23.958C151.312 23.034 151.994 22.3153 152.859 21.802C153.739 21.274 154.744 21.01 155.873 21.01ZM162.199 21.45H167.413C167.765 21.45 168.058 21.5673 168.293 21.802C168.527 22.0367 168.645 22.33 168.645 22.682C168.645 23.0193 168.527 23.3053 168.293 23.54C168.058 23.76 167.765 23.87 167.413 23.87H162.199C161.847 23.87 161.553 23.7527 161.319 23.518C161.084 23.2833 160.967 22.99 160.967 22.638C160.967 22.3007 161.084 22.022 161.319 21.802C161.553 21.5673 161.847 21.45 162.199 21.45ZM164.553 18.7C164.934 18.7 165.242 18.832 165.477 19.096C165.726 19.3453 165.851 19.6607 165.851 20.042V29.832C165.851 30.0373 165.887 30.206 165.961 30.338C166.049 30.47 166.159 30.5653 166.291 30.624C166.437 30.6827 166.591 30.712 166.753 30.712C166.929 30.712 167.09 30.6827 167.237 30.624C167.383 30.5507 167.552 30.514 167.743 30.514C167.948 30.514 168.131 30.6093 168.293 30.8C168.469 30.9907 168.557 31.2547 168.557 31.592C168.557 32.0027 168.329 32.34 167.875 32.604C167.435 32.868 166.958 33 166.445 33C166.137 33 165.792 32.978 165.411 32.934C165.044 32.8753 164.692 32.7507 164.355 32.56C164.032 32.3547 163.761 32.0467 163.541 31.636C163.321 31.2253 163.211 30.6607 163.211 29.942V20.042C163.211 19.6607 163.335 19.3453 163.585 19.096C163.849 18.832 164.171 18.7 164.553 18.7ZM182.379 27.126C182.379 28.3287 182.108 29.392 181.565 30.316C181.037 31.2253 180.319 31.9367 179.409 32.45C178.515 32.9633 177.51 33.22 176.395 33.22C175.281 33.22 174.269 32.9633 173.359 32.45C172.465 31.9367 171.746 31.2253 171.203 30.316C170.675 29.392 170.411 28.3287 170.411 27.126C170.411 25.9233 170.675 24.8673 171.203 23.958C171.746 23.034 172.465 22.3153 173.359 21.802C174.269 21.274 175.281 21.01 176.395 21.01C177.51 21.01 178.515 21.274 179.409 21.802C180.319 22.3153 181.037 23.034 181.565 23.958C182.108 24.8673 182.379 25.9233 182.379 27.126ZM179.739 27.126C179.739 26.378 179.585 25.7327 179.277 25.19C178.984 24.6327 178.581 24.2 178.067 23.892C177.569 23.584 177.011 23.43 176.395 23.43C175.779 23.43 175.215 23.584 174.701 23.892C174.203 24.2 173.799 24.6327 173.491 25.19C173.198 25.7327 173.051 26.378 173.051 27.126C173.051 27.8593 173.198 28.5047 173.491 29.062C173.799 29.6047 174.203 30.03 174.701 30.338C175.215 30.646 175.779 30.8 176.395 30.8C177.011 30.8 177.569 30.646 178.067 30.338C178.581 30.03 178.984 29.6047 179.277 29.062C179.585 28.5047 179.739 27.8593 179.739 27.126ZM186.01 33C185.628 33 185.313 32.8753 185.064 32.626C184.814 32.362 184.69 32.0393 184.69 31.658V22.572C184.69 22.1907 184.814 21.8753 185.064 21.626C185.313 21.362 185.628 21.23 186.01 21.23C186.391 21.23 186.706 21.362 186.956 21.626C187.205 21.8753 187.33 22.1907 187.33 22.572V24.64L187.176 23.166C187.337 22.814 187.542 22.506 187.792 22.242C188.056 21.9633 188.349 21.736 188.672 21.56C188.994 21.3693 189.339 21.23 189.706 21.142C190.072 21.054 190.439 21.01 190.806 21.01C191.246 21.01 191.612 21.1347 191.906 21.384C192.214 21.6333 192.368 21.9267 192.368 22.264C192.368 22.748 192.243 23.1 191.994 23.32C191.744 23.5253 191.473 23.628 191.18 23.628C190.901 23.628 190.644 23.5767 190.41 23.474C190.19 23.3713 189.933 23.32 189.64 23.32C189.376 23.32 189.104 23.386 188.826 23.518C188.562 23.6353 188.312 23.826 188.078 24.09C187.858 24.354 187.674 24.684 187.528 25.08C187.396 25.4613 187.33 25.916 187.33 26.444V31.658C187.33 32.0393 187.205 32.362 186.956 32.626C186.706 32.8753 186.391 33 186.01 33ZM202.963 21.23C203.344 21.23 203.659 21.362 203.909 21.626C204.158 21.8753 204.283 22.1907 204.283 22.572V31.922C204.283 33.2713 204.026 34.342 203.513 35.134C203.014 35.9407 202.339 36.52 201.489 36.872C200.638 37.224 199.685 37.4 198.629 37.4C198.159 37.4 197.661 37.3633 197.133 37.29C196.605 37.2167 196.172 37.1067 195.835 36.96C195.395 36.7693 195.087 36.5273 194.911 36.234C194.749 35.9553 194.72 35.6547 194.823 35.332C194.955 34.9067 195.167 34.6133 195.461 34.452C195.754 34.3053 196.062 34.2907 196.385 34.408C196.619 34.4813 196.927 34.5913 197.309 34.738C197.69 34.8993 198.13 34.98 198.629 34.98C199.303 34.98 199.861 34.8847 200.301 34.694C200.755 34.518 201.093 34.21 201.313 33.77C201.547 33.3447 201.665 32.758 201.665 32.01V30.536L202.127 31.064C201.877 31.548 201.562 31.9513 201.181 32.274C200.814 32.582 200.374 32.8167 199.861 32.978C199.347 33.1393 198.761 33.22 198.101 33.22C197.323 33.22 196.641 33.044 196.055 32.692C195.483 32.3253 195.035 31.8267 194.713 31.196C194.39 30.5507 194.229 29.8173 194.229 28.996V22.572C194.229 22.1907 194.353 21.8753 194.603 21.626C194.852 21.362 195.167 21.23 195.549 21.23C195.93 21.23 196.245 21.362 196.495 21.626C196.744 21.8753 196.869 22.1907 196.869 22.572V28.204C196.869 29.1573 197.074 29.832 197.485 30.228C197.91 30.6093 198.497 30.8 199.245 30.8C199.758 30.8 200.191 30.7047 200.543 30.514C200.895 30.3087 201.166 30.0153 201.357 29.634C201.547 29.238 201.643 28.7613 201.643 28.204V22.572C201.643 22.1907 201.767 21.8753 202.017 21.626C202.266 21.362 202.581 21.23 202.963 21.23Z" fill="white"/>
<path d="M66.9215 40.385V47H65.798V40.385H66.9215ZM71.1298 42.842H69.7228V45.5195C69.7228 45.7645 69.7788 45.929 69.8908 46.013C70.0098 46.097 70.1673 46.139 70.3633 46.139C70.5033 46.139 70.6503 46.125 70.8043 46.097C70.9653 46.062 71.1053 46.0235 71.2243 45.9815L71.3923 46.7795C71.2523 46.8355 71.0703 46.888 70.8463 46.937C70.6293 46.979 70.3983 47 70.1533 47C69.6213 47 69.2363 46.8915 68.9983 46.6745C68.7673 46.4505 68.6518 46.1215 68.6518 45.6875V42.842H67.8958V42.044H68.6518V40.4795H69.7228V42.044H71.1298V42.842ZM72.509 40.553C72.313 40.518 72.1625 40.434 72.0575 40.301C71.9525 40.161 71.9 40 71.9 39.818C71.9 39.629 71.963 39.4645 72.089 39.3245C72.215 39.1775 72.3935 39.104 72.6245 39.104C72.7155 39.104 72.8065 39.1215 72.8975 39.1565C72.9955 39.1915 73.083 39.251 73.16 39.335C73.244 39.412 73.3105 39.5205 73.3595 39.6605C73.4155 39.8005 73.4435 39.9755 73.4435 40.1855C73.4435 40.3955 73.4085 40.595 73.3385 40.784C73.2755 40.973 73.188 41.1515 73.076 41.3195C72.964 41.4805 72.831 41.6275 72.677 41.7605C72.53 41.8935 72.3725 42.0055 72.2045 42.0965L71.8685 41.6345C72.0645 41.5295 72.236 41.3895 72.383 41.2145C72.537 41.0395 72.6385 40.8295 72.6875 40.5845L72.509 40.553ZM77.2646 43.052C77.0406 42.947 76.8306 42.8735 76.6346 42.8315C76.4456 42.7825 76.2566 42.758 76.0676 42.758C75.7736 42.758 75.5496 42.814 75.3956 42.926C75.2486 43.031 75.1751 43.1745 75.1751 43.3565C75.1751 43.4965 75.2311 43.619 75.3431 43.724C75.4551 43.822 75.6861 43.92 76.0361 44.018L76.3511 44.1125C76.8061 44.2525 77.1491 44.4345 77.3801 44.6585C77.6181 44.8825 77.7371 45.1835 77.7371 45.5615C77.7371 46.0235 77.5621 46.398 77.2121 46.685C76.8621 46.965 76.3826 47.105 75.7736 47.105C75.4446 47.105 75.1366 47.0735 74.8496 47.0105C74.5696 46.9545 74.3176 46.874 74.0936 46.769L74.3456 45.95C74.5486 46.048 74.7656 46.1285 74.9966 46.1915C75.2276 46.2545 75.4656 46.286 75.7106 46.286C76.0116 46.286 76.2461 46.2335 76.4141 46.1285C76.5821 46.0235 76.6661 45.8625 76.6661 45.6455C76.6661 45.4425 76.5891 45.299 76.4351 45.215C76.2881 45.124 76.0571 45.0295 75.7421 44.9315L75.4166 44.837C74.9756 44.69 74.6466 44.5045 74.4296 44.2805C74.2196 44.0565 74.1146 43.7625 74.1146 43.3985C74.1146 43.1815 74.1601 42.9855 74.2511 42.8105C74.3421 42.6355 74.4681 42.485 74.6291 42.359C74.7901 42.233 74.9826 42.135 75.2066 42.065C75.4376 41.995 75.6896 41.96 75.9626 41.96C76.2216 41.96 76.4841 41.9845 76.7501 42.0335C77.0231 42.0825 77.2751 42.1595 77.5061 42.2645L77.2646 43.052ZM83.8754 42.842H82.4684V45.5195C82.4684 45.7645 82.5244 45.929 82.6364 46.013C82.7554 46.097 82.9129 46.139 83.1089 46.139C83.2489 46.139 83.3959 46.125 83.5499 46.097C83.7109 46.062 83.8509 46.0235 83.9699 45.9815L84.1379 46.7795C83.9979 46.8355 83.8159 46.888 83.5919 46.937C83.3749 46.979 83.1439 47 82.8989 47C82.3669 47 81.9819 46.8915 81.7439 46.6745C81.5129 46.4505 81.3974 46.1215 81.3974 45.6875V42.842H80.6414V42.044H81.3974V40.4795H82.4684V42.044H83.8754V42.842ZM85.1471 47V42.044H86.2286V47H85.1471ZM85.6931 40.8155C85.5041 40.8155 85.3536 40.7595 85.2416 40.6475C85.1296 40.5285 85.0736 40.3815 85.0736 40.2065C85.0736 40.0315 85.1296 39.888 85.2416 39.776C85.3536 39.657 85.5041 39.5975 85.6931 39.5975C85.8751 39.5975 86.0221 39.657 86.1341 39.776C86.2531 39.888 86.3126 40.0315 86.3126 40.2065C86.3126 40.3885 86.2531 40.5355 86.1341 40.6475C86.0221 40.7595 85.8751 40.8155 85.6931 40.8155ZM88.7996 47H87.7181V42.044H88.5581L88.7051 42.7055C88.9361 42.4745 89.1846 42.2925 89.4506 42.1595C89.7166 42.0265 90.0281 41.96 90.3851 41.96C90.7421 41.96 91.0326 42.03 91.2566 42.17C91.4876 42.31 91.6626 42.506 91.7816 42.758C92.0196 42.506 92.2821 42.31 92.5691 42.17C92.8631 42.03 93.1851 41.96 93.5351 41.96C94.0531 41.96 94.4416 42.1035 94.7006 42.3905C94.9666 42.6705 95.0996 43.0695 95.0996 43.5875V47H94.0181V43.7555C94.0181 43.4545 93.9516 43.2235 93.8186 43.0625C93.6926 42.9015 93.4826 42.821 93.1886 42.821C92.7406 42.821 92.3276 43.0205 91.9496 43.4195V47H90.8681V43.7555C90.8681 43.4545 90.8016 43.2235 90.6686 43.0625C90.5426 42.9015 90.3326 42.821 90.0386 42.821C89.5906 42.821 89.1776 43.031 88.7996 43.451V47ZM100.769 44.711H97.294V44.753C97.294 45.257 97.441 45.6385 97.735 45.8975C98.029 46.1565 98.4175 46.286 98.9005 46.286C99.1665 46.286 99.4045 46.265 99.6145 46.223C99.8315 46.174 100.048 46.1005 100.265 46.0025L100.475 46.79C100.272 46.881 100.031 46.9545 99.751 47.0105C99.471 47.0735 99.163 47.105 98.827 47.105C98.47 47.105 98.1305 47.056 97.8085 46.958C97.4865 46.86 97.203 46.706 96.958 46.496C96.72 46.286 96.531 46.02 96.391 45.698C96.251 45.376 96.181 44.991 96.181 44.543C96.181 44.158 96.237 43.808 96.349 43.493C96.468 43.171 96.6325 42.898 96.8425 42.674C97.0595 42.443 97.3185 42.268 97.6195 42.149C97.9275 42.023 98.267 41.96 98.638 41.96C98.96 41.96 99.2505 42.0125 99.5095 42.1175C99.7755 42.2225 99.9995 42.373 100.181 42.569C100.37 42.758 100.514 42.9925 100.612 43.2725C100.717 43.5455 100.769 43.85 100.769 44.186V44.711ZM99.6565 43.955C99.6565 43.787 99.6355 43.6295 99.5935 43.4825C99.5515 43.3355 99.4885 43.2095 99.4045 43.1045C99.3205 42.9925 99.2085 42.905 99.0685 42.842C98.9355 42.772 98.7745 42.737 98.5855 42.737C98.2355 42.737 97.9485 42.849 97.7245 43.073C97.5075 43.297 97.3745 43.598 97.3255 43.976L99.6565 43.955ZM106.916 42.842H105.509V45.5195C105.509 45.7645 105.565 45.929 105.677 46.013C105.796 46.097 105.953 46.139 106.149 46.139C106.289 46.139 106.436 46.125 106.59 46.097C106.751 46.062 106.891 46.0235 107.01 45.9815L107.178 46.7795C107.038 46.8355 106.856 46.888 106.632 46.937C106.415 46.979 106.184 47 105.939 47C105.407 47 105.022 46.8915 104.784 46.6745C104.553 46.4505 104.438 46.1215 104.438 45.6875V42.842H103.682V42.044H104.438V40.4795H105.509V42.044H106.916V42.842ZM112.713 44.4695C112.713 44.8825 112.647 45.2535 112.514 45.5825C112.388 45.9115 112.213 46.188 111.989 46.412C111.765 46.636 111.502 46.8075 111.201 46.9265C110.9 47.0455 110.575 47.105 110.225 47.105C109.875 47.105 109.549 47.049 109.248 46.937C108.954 46.825 108.695 46.664 108.471 46.454C108.254 46.237 108.083 45.971 107.957 45.656C107.838 45.341 107.778 44.9805 107.778 44.5745C107.778 44.1545 107.841 43.7835 107.967 43.4615C108.1 43.1395 108.279 42.8665 108.503 42.6425C108.727 42.4185 108.989 42.2505 109.29 42.1385C109.591 42.0195 109.917 41.96 110.267 41.96C110.617 41.96 110.939 42.016 111.233 42.128C111.534 42.233 111.793 42.3905 112.01 42.6005C112.234 42.8105 112.405 43.073 112.524 43.388C112.65 43.703 112.713 44.0635 112.713 44.4695ZM111.59 44.522C111.59 44.207 111.551 43.941 111.474 43.724C111.397 43.5 111.296 43.318 111.17 43.178C111.044 43.038 110.9 42.9365 110.739 42.8735C110.578 42.8105 110.41 42.779 110.235 42.779C110.067 42.779 109.903 42.807 109.742 42.863C109.581 42.919 109.437 43.0135 109.311 43.1465C109.185 43.2795 109.084 43.458 109.007 43.682C108.937 43.906 108.902 44.186 108.902 44.522C108.902 44.83 108.94 45.096 109.017 45.32C109.094 45.544 109.196 45.7295 109.322 45.8765C109.448 46.0165 109.591 46.1215 109.752 46.1915C109.92 46.2545 110.088 46.286 110.256 46.286C110.424 46.286 110.589 46.258 110.75 46.202C110.911 46.146 111.054 46.0515 111.18 45.9185C111.306 45.7785 111.404 45.5965 111.474 45.3725C111.551 45.1415 111.59 44.858 111.59 44.522ZM119.018 43.052C118.794 42.947 118.584 42.8735 118.388 42.8315C118.199 42.7825 118.01 42.758 117.821 42.758C117.527 42.758 117.303 42.814 117.149 42.926C117.002 43.031 116.929 43.1745 116.929 43.3565C116.929 43.4965 116.985 43.619 117.097 43.724C117.209 43.822 117.44 43.92 117.79 44.018L118.105 44.1125C118.56 44.2525 118.903 44.4345 119.134 44.6585C119.372 44.8825 119.491 45.1835 119.491 45.5615C119.491 46.0235 119.316 46.398 118.966 46.685C118.616 46.965 118.136 47.105 117.527 47.105C117.198 47.105 116.89 47.0735 116.603 47.0105C116.323 46.9545 116.071 46.874 115.847 46.769L116.099 45.95C116.302 46.048 116.519 46.1285 116.75 46.1915C116.981 46.2545 117.219 46.286 117.464 46.286C117.765 46.286 118 46.2335 118.168 46.1285C118.336 46.0235 118.42 45.8625 118.42 45.6455C118.42 45.4425 118.343 45.299 118.189 45.215C118.042 45.124 117.811 45.0295 117.496 44.9315L117.17 44.837C116.729 44.69 116.4 44.5045 116.183 44.2805C115.973 44.0565 115.868 43.7625 115.868 43.3985C115.868 43.1815 115.914 42.9855 116.005 42.8105C116.096 42.6355 116.222 42.485 116.383 42.359C116.544 42.233 116.736 42.135 116.96 42.065C117.191 41.995 117.443 41.96 117.716 41.96C117.975 41.96 118.238 41.9845 118.504 42.0335C118.777 42.0825 119.029 42.1595 119.26 42.2645L119.018 43.052ZM122.967 46.286C123.191 46.286 123.387 46.2615 123.555 46.2125C123.73 46.1565 123.887 46.0935 124.027 46.0235L124.248 46.8005C124.08 46.8915 123.877 46.965 123.639 47.021C123.401 47.077 123.138 47.105 122.851 47.105C122.487 47.105 122.144 47.0525 121.822 46.9475C121.507 46.8355 121.231 46.6745 120.993 46.4645C120.762 46.2475 120.576 45.978 120.436 45.656C120.303 45.334 120.237 44.9595 120.237 44.5325C120.237 44.1405 120.3 43.787 120.426 43.472C120.552 43.15 120.73 42.877 120.961 42.653C121.192 42.429 121.469 42.2575 121.791 42.1385C122.113 42.0195 122.466 41.96 122.851 41.96C123.068 41.96 123.285 41.9775 123.502 42.0125C123.726 42.0475 123.971 42.128 124.237 42.254L123.996 43.0415C123.667 42.8595 123.324 42.7685 122.967 42.7685C122.484 42.7685 122.092 42.919 121.791 43.22C121.49 43.521 121.339 43.948 121.339 44.501C121.339 44.837 121.385 45.1205 121.476 45.3515C121.574 45.5755 121.7 45.7575 121.854 45.8975C122.008 46.0375 122.179 46.139 122.368 46.202C122.564 46.258 122.764 46.286 122.967 46.286ZM129.56 44.4695C129.56 44.8825 129.494 45.2535 129.361 45.5825C129.235 45.9115 129.06 46.188 128.836 46.412C128.612 46.636 128.349 46.8075 128.048 46.9265C127.747 47.0455 127.422 47.105 127.072 47.105C126.722 47.105 126.396 47.049 126.095 46.937C125.801 46.825 125.542 46.664 125.318 46.454C125.101 46.237 124.93 45.971 124.804 45.656C124.685 45.341 124.625 44.9805 124.625 44.5745C124.625 44.1545 124.688 43.7835 124.814 43.4615C124.947 43.1395 125.126 42.8665 125.35 42.6425C125.574 42.4185 125.836 42.2505 126.137 42.1385C126.438 42.0195 126.764 41.96 127.114 41.96C127.464 41.96 127.786 42.016 128.08 42.128C128.381 42.233 128.64 42.3905 128.857 42.6005C129.081 42.8105 129.252 43.073 129.371 43.388C129.497 43.703 129.56 44.0635 129.56 44.4695ZM128.437 44.522C128.437 44.207 128.398 43.941 128.321 43.724C128.244 43.5 128.143 43.318 128.017 43.178C127.891 43.038 127.747 42.9365 127.586 42.8735C127.425 42.8105 127.257 42.779 127.082 42.779C126.914 42.779 126.75 42.807 126.589 42.863C126.428 42.919 126.284 43.0135 126.158 43.1465C126.032 43.2795 125.931 43.458 125.854 43.682C125.784 43.906 125.749 44.186 125.749 44.522C125.749 44.83 125.787 45.096 125.864 45.32C125.941 45.544 126.043 45.7295 126.169 45.8765C126.295 46.0165 126.438 46.1215 126.599 46.1915C126.767 46.2545 126.935 46.286 127.103 46.286C127.271 46.286 127.436 46.258 127.597 46.202C127.758 46.146 127.901 46.0515 128.027 45.9185C128.153 45.7785 128.251 45.5965 128.321 45.3725C128.398 45.1415 128.437 44.858 128.437 44.522ZM130.63 47V42.044H131.449L131.607 42.9995C131.726 42.7055 131.918 42.4605 132.184 42.2645C132.45 42.0615 132.772 41.96 133.15 41.96C133.318 41.96 133.462 41.974 133.581 42.002C133.707 42.03 133.819 42.0685 133.917 42.1175L133.717 43.0205C133.633 42.9785 133.535 42.9435 133.423 42.9155C133.318 42.8875 133.196 42.8735 133.056 42.8735C132.671 42.8735 132.349 43.0065 132.09 43.2725C131.831 43.5315 131.701 43.927 131.701 44.459V47H130.63ZM138.637 44.711H135.162V44.753C135.162 45.257 135.309 45.6385 135.603 45.8975C135.897 46.1565 136.285 46.286 136.768 46.286C137.034 46.286 137.272 46.265 137.482 46.223C137.699 46.174 137.916 46.1005 138.133 46.0025L138.343 46.79C138.14 46.881 137.899 46.9545 137.619 47.0105C137.339 47.0735 137.031 47.105 136.695 47.105C136.338 47.105 135.998 47.056 135.676 46.958C135.354 46.86 135.071 46.706 134.826 46.496C134.588 46.286 134.399 46.02 134.259 45.698C134.119 45.376 134.049 44.991 134.049 44.543C134.049 44.158 134.105 43.808 134.217 43.493C134.336 43.171 134.5 42.898 134.71 42.674C134.927 42.443 135.186 42.268 135.487 42.149C135.795 42.023 136.135 41.96 136.506 41.96C136.828 41.96 137.118 42.0125 137.377 42.1175C137.643 42.2225 137.867 42.373 138.049 42.569C138.238 42.758 138.382 42.9925 138.48 43.2725C138.585 43.5455 138.637 43.85 138.637 44.186V44.711ZM137.524 43.955C137.524 43.787 137.503 43.6295 137.461 43.4825C137.419 43.3355 137.356 43.2095 137.272 43.1045C137.188 42.9925 137.076 42.905 136.936 42.842C136.803 42.772 136.642 42.737 136.453 42.737C136.103 42.737 135.816 42.849 135.592 43.073C135.375 43.297 135.242 43.598 135.193 43.976L137.524 43.955ZM146.695 44.4695C146.695 44.8825 146.628 45.2535 146.495 45.5825C146.369 45.9115 146.194 46.188 145.97 46.412C145.746 46.636 145.484 46.8075 145.183 46.9265C144.882 47.0455 144.556 47.105 144.206 47.105C143.856 47.105 143.531 47.049 143.23 46.937C142.936 46.825 142.677 46.664 142.453 46.454C142.236 46.237 142.064 45.971 141.938 45.656C141.819 45.341 141.76 44.9805 141.76 44.5745C141.76 44.1545 141.823 43.7835 141.949 43.4615C142.082 43.1395 142.26 42.8665 142.484 42.6425C142.708 42.4185 142.971 42.2505 143.272 42.1385C143.573 42.0195 143.898 41.96 144.248 41.96C144.598 41.96 144.92 42.016 145.214 42.128C145.515 42.233 145.774 42.3905 145.991 42.6005C146.215 42.8105 146.387 43.073 146.506 43.388C146.632 43.703 146.695 44.0635 146.695 44.4695ZM145.571 44.522C145.571 44.207 145.533 43.941 145.456 43.724C145.379 43.5 145.277 43.318 145.151 43.178C145.025 43.038 144.882 42.9365 144.721 42.8735C144.56 42.8105 144.392 42.779 144.217 42.779C144.049 42.779 143.884 42.807 143.723 42.863C143.562 42.919 143.419 43.0135 143.293 43.1465C143.167 43.2795 143.065 43.458 142.988 43.682C142.918 43.906 142.883 44.186 142.883 44.522C142.883 44.83 142.922 45.096 142.999 45.32C143.076 45.544 143.177 45.7295 143.303 45.8765C143.429 46.0165 143.573 46.1215 143.734 46.1915C143.902 46.2545 144.07 46.286 144.238 46.286C144.406 46.286 144.57 46.258 144.731 46.202C144.892 46.146 145.036 46.0515 145.162 45.9185C145.288 45.7785 145.386 45.5965 145.456 45.3725C145.533 45.1415 145.571 44.858 145.571 44.522ZM148.857 47H147.775V42.044H148.626L148.773 42.7055C149.018 42.4675 149.273 42.2855 149.539 42.1595C149.812 42.0265 150.12 41.96 150.463 41.96C150.988 41.96 151.394 42.1035 151.681 42.3905C151.968 42.6775 152.112 43.087 152.112 43.619V47H151.03V43.7555C151.03 43.4685 150.957 43.241 150.81 43.073C150.663 42.905 150.442 42.821 150.148 42.821C149.924 42.821 149.7 42.877 149.476 42.989C149.259 43.094 149.053 43.248 148.857 43.451V47ZM156.958 47H155.876V39.5345H156.958V42.611C157.182 42.429 157.427 42.275 157.693 42.149C157.966 42.023 158.267 41.96 158.596 41.96C158.876 41.96 159.121 42.002 159.331 42.086C159.541 42.17 159.712 42.2855 159.845 42.4325C159.985 42.5795 160.087 42.7545 160.15 42.9575C160.22 43.1605 160.255 43.381 160.255 43.619V47H159.173V43.8605C159.173 43.4895 159.096 43.2235 158.942 43.0625C158.788 42.9015 158.564 42.821 158.27 42.821C158.053 42.821 157.829 42.877 157.598 42.989C157.374 43.094 157.161 43.241 156.958 43.43V47ZM164.915 42.044H165.996V47H165.167L165.03 46.4015H164.988C164.813 46.5835 164.593 46.748 164.327 46.895C164.061 47.035 163.739 47.105 163.361 47.105C162.836 47.105 162.416 46.958 162.101 46.664C161.786 46.37 161.628 45.929 161.628 45.341V42.044H162.71V45.2255C162.71 45.6105 162.797 45.88 162.972 46.034C163.154 46.188 163.371 46.265 163.623 46.265C163.896 46.265 164.138 46.209 164.348 46.097C164.558 45.978 164.747 45.824 164.915 45.635V42.044ZM168.442 47H167.36V42.044H168.211L168.358 42.7055C168.603 42.4675 168.858 42.2855 169.124 42.1595C169.397 42.0265 169.705 41.96 170.048 41.96C170.573 41.96 170.979 42.1035 171.266 42.3905C171.553 42.6775 171.697 43.087 171.697 43.619V47H170.615V43.7555C170.615 43.4685 170.542 43.241 170.395 43.073C170.248 42.905 170.027 42.821 169.733 42.821C169.509 42.821 169.285 42.877 169.061 42.989C168.844 43.094 168.638 43.248 168.442 43.451V47ZM172.957 43.703C172.957 43.43 173.006 43.185 173.104 42.968C173.209 42.751 173.353 42.569 173.535 42.422C173.717 42.268 173.934 42.1525 174.186 42.0755C174.438 41.9985 174.711 41.96 175.005 41.96C175.222 41.96 175.442 41.988 175.666 42.044H177.798V42.7895H177.43L176.653 42.6845C176.772 42.8175 176.867 42.9715 176.937 43.1465C177.007 43.3215 177.042 43.5035 177.042 43.6925C177.042 43.9655 176.993 44.2105 176.895 44.4275C176.797 44.6375 176.657 44.8195 176.475 44.9735C176.3 45.1205 176.086 45.2325 175.834 45.3095C175.582 45.3865 175.306 45.425 175.005 45.425C174.907 45.425 174.812 45.4215 174.721 45.4145C174.637 45.4075 174.553 45.397 174.469 45.383C174.336 45.439 174.242 45.5055 174.186 45.5825C174.13 45.6595 174.102 45.7435 174.102 45.8345C174.102 45.9745 174.151 46.0725 174.249 46.1285C174.347 46.1845 174.487 46.2125 174.669 46.2125H175.918C176.464 46.2125 176.888 46.3385 177.189 46.5905C177.497 46.8355 177.651 47.189 177.651 47.651C177.651 47.924 177.588 48.169 177.462 48.386C177.343 48.61 177.168 48.799 176.937 48.953C176.713 49.114 176.44 49.2365 176.118 49.3205C175.796 49.4045 175.435 49.4465 175.036 49.4465C174.301 49.4465 173.72 49.317 173.293 49.058C172.866 48.799 172.653 48.4175 172.653 47.9135C172.653 47.6685 172.733 47.4585 172.894 47.2835C173.055 47.1085 173.269 46.972 173.535 46.874C173.409 46.79 173.307 46.692 173.23 46.58C173.153 46.461 173.115 46.307 173.115 46.118C173.115 45.894 173.181 45.705 173.314 45.551C173.447 45.39 173.622 45.264 173.839 45.173C173.587 45.054 173.377 44.8755 173.209 44.6375C173.041 44.3925 172.957 44.081 172.957 43.703ZM174.154 47.0525C173.832 47.2065 173.671 47.4375 173.671 47.7455C173.671 48.0255 173.783 48.239 174.007 48.386C174.238 48.533 174.595 48.6065 175.078 48.6065C175.351 48.6065 175.582 48.5785 175.771 48.5225C175.96 48.4735 176.114 48.407 176.233 48.323C176.359 48.239 176.45 48.1445 176.506 48.0395C176.562 47.9345 176.59 47.826 176.59 47.714C176.59 47.448 176.499 47.2695 176.317 47.1785C176.142 47.0945 175.908 47.0525 175.614 47.0525H174.154ZM175.96 43.7135C175.96 43.3775 175.873 43.129 175.698 42.968C175.523 42.8 175.292 42.716 175.005 42.716C174.711 42.716 174.476 42.7965 174.301 42.9575C174.133 43.1185 174.049 43.36 174.049 43.682C174.049 44.018 174.137 44.2665 174.312 44.4275C174.487 44.5885 174.718 44.669 175.005 44.669C175.299 44.669 175.53 44.5885 175.698 44.4275C175.873 44.2665 175.96 44.0285 175.96 43.7135ZM182.985 44.711H179.51V44.753C179.51 45.257 179.657 45.6385 179.951 45.8975C180.245 46.1565 180.633 46.286 181.116 46.286C181.382 46.286 181.62 46.265 181.83 46.223C182.047 46.174 182.264 46.1005 182.481 46.0025L182.691 46.79C182.488 46.881 182.247 46.9545 181.967 47.0105C181.687 47.0735 181.379 47.105 181.043 47.105C180.686 47.105 180.346 47.056 180.024 46.958C179.702 46.86 179.419 46.706 179.174 46.496C178.936 46.286 178.747 46.02 178.607 45.698C178.467 45.376 178.397 44.991 178.397 44.543C178.397 44.158 178.453 43.808 178.565 43.493C178.684 43.171 178.848 42.898 179.058 42.674C179.275 42.443 179.534 42.268 179.835 42.149C180.143 42.023 180.483 41.96 180.854 41.96C181.176 41.96 181.466 42.0125 181.725 42.1175C181.991 42.2225 182.215 42.373 182.397 42.569C182.586 42.758 182.73 42.9925 182.828 43.2725C182.933 43.5455 182.985 43.85 182.985 44.186V44.711ZM181.872 43.955C181.872 43.787 181.851 43.6295 181.809 43.4825C181.767 43.3355 181.704 43.2095 181.62 43.1045C181.536 42.9925 181.424 42.905 181.284 42.842C181.151 42.772 180.99 42.737 180.801 42.737C180.451 42.737 180.164 42.849 179.94 43.073C179.723 43.297 179.59 43.598 179.541 43.976L181.872 43.955ZM184.023 47V42.044H184.842L184.999 42.9995C185.118 42.7055 185.311 42.4605 185.577 42.2645C185.843 42.0615 186.165 41.96 186.543 41.96C186.711 41.96 186.854 41.974 186.973 42.002C187.099 42.03 187.211 42.0685 187.309 42.1175L187.11 43.0205C187.026 42.9785 186.928 42.9435 186.816 42.9155C186.711 42.8875 186.588 42.8735 186.448 42.8735C186.063 42.8735 185.741 43.0065 185.482 43.2725C185.223 43.5315 185.094 43.927 185.094 44.459V47H184.023ZM188.075 39.545H189.219L189.072 44.753H188.201L188.075 39.545ZM187.949 46.391C187.949 46.188 188.019 46.02 188.159 45.887C188.299 45.754 188.46 45.6875 188.642 45.6875C188.831 45.6875 188.992 45.754 189.125 45.887C189.258 46.02 189.324 46.188 189.324 46.391C189.324 46.608 189.258 46.783 189.125 46.916C188.992 47.042 188.831 47.105 188.642 47.105C188.46 47.105 188.299 47.042 188.159 46.916C188.019 46.783 187.949 46.608 187.949 46.391Z" fill="white"/>
</svg>
