<svg width="140" height="22" viewBox="0 0 140 22" fill="none" xmlns="http://www.w3.org/2000/svg">
<path d="M2.036 17C1.62533 17 1.288 16.8753 1.024 16.626C0.774667 16.362 0.65 16.0393 0.65 15.658V2.942C0.65 2.56067 0.774667 2.24533 1.024 1.996C1.288 1.732 1.61067 1.6 1.992 1.6H9.142C9.52333 1.6 9.83867 1.72467 10.088 1.974C10.352 2.20867 10.484 2.51667 10.484 2.898C10.484 3.22067 10.352 3.50667 10.088 3.756C9.83867 4.00533 9.52333 4.13 9.142 4.13H3.202L3.4 3.866V8.288L3.246 8.002H8.152C8.53333 8.002 8.84867 8.12667 9.098 8.376C9.362 8.61067 9.494 8.91867 9.494 9.3C9.494 9.62267 9.362 9.90867 9.098 10.158C8.84867 10.4073 8.53333 10.532 8.152 10.532H3.202L3.4 10.334V15.658C3.4 16.0393 3.26067 16.362 2.982 16.626C2.718 16.8753 2.40267 17 2.036 17ZM23.8793 11.126C23.8793 12.3287 23.6079 13.392 23.0653 14.316C22.5373 15.2253 21.8186 15.9367 20.9093 16.45C20.0146 16.9633 19.0099 17.22 17.8953 17.22C16.7806 17.22 15.7686 16.9633 14.8593 16.45C13.9646 15.9367 13.2459 15.2253 12.7033 14.316C12.1753 13.392 11.9113 12.3287 11.9113 11.126C11.9113 9.92333 12.1753 8.86733 12.7033 7.958C13.2459 7.034 13.9646 6.31533 14.8593 5.802C15.7686 5.274 16.7806 5.01 17.8953 5.01C19.0099 5.01 20.0146 5.274 20.9093 5.802C21.8186 6.31533 22.5373 7.034 23.0653 7.958C23.6079 8.86733 23.8793 9.92333 23.8793 11.126ZM21.2393 11.126C21.2393 10.378 21.0853 9.73267 20.7773 9.19C20.4839 8.63267 20.0806 8.2 19.5673 7.892C19.0686 7.584 18.5113 7.43 17.8953 7.43C17.2793 7.43 16.7146 7.584 16.2013 7.892C15.7026 8.2 15.2993 8.63267 14.9913 9.19C14.6979 9.73267 14.5513 10.378 14.5513 11.126C14.5513 11.8593 14.6979 12.5047 14.9913 13.062C15.2993 13.6047 15.7026 14.03 16.2013 14.338C16.7146 14.646 17.2793 14.8 17.8953 14.8C18.5113 14.8 19.0686 14.646 19.5673 14.338C20.0806 14.03 20.4839 13.6047 20.7773 13.062C21.0853 12.5047 21.2393 11.8593 21.2393 11.126ZM37.6078 11.126C37.6078 12.3287 37.3364 13.392 36.7938 14.316C36.2658 15.2253 35.5471 15.9367 34.6378 16.45C33.7431 16.9633 32.7384 17.22 31.6238 17.22C30.5091 17.22 29.4971 16.9633 28.5878 16.45C27.6931 15.9367 26.9744 15.2253 26.4318 14.316C25.9038 13.392 25.6398 12.3287 25.6398 11.126C25.6398 9.92333 25.9038 8.86733 26.4318 7.958C26.9744 7.034 27.6931 6.31533 28.5878 5.802C29.4971 5.274 30.5091 5.01 31.6238 5.01C32.7384 5.01 33.7431 5.274 34.6378 5.802C35.5471 6.31533 36.2658 7.034 36.7938 7.958C37.3364 8.86733 37.6078 9.92333 37.6078 11.126ZM34.9678 11.126C34.9678 10.378 34.8138 9.73267 34.5058 9.19C34.2124 8.63267 33.8091 8.2 33.2958 7.892C32.7971 7.584 32.2398 7.43 31.6238 7.43C31.0078 7.43 30.4431 7.584 29.9298 7.892C29.4311 8.2 29.0278 8.63267 28.7198 9.19C28.4264 9.73267 28.2798 10.378 28.2798 11.126C28.2798 11.8593 28.4264 12.5047 28.7198 13.062C29.0278 13.6047 29.4311 14.03 29.9298 14.338C30.4431 14.646 31.0078 14.8 31.6238 14.8C32.2398 14.8 32.7971 14.646 33.2958 14.338C33.8091 14.03 34.2124 13.6047 34.5058 13.062C34.8138 12.5047 34.9678 11.8593 34.9678 11.126ZM49.5543 0.72C49.9356 0.72 50.2509 0.844666 50.5003 1.094C50.7496 1.34333 50.8743 1.666 50.8743 2.062V15.658C50.8743 16.0393 50.7496 16.362 50.5003 16.626C50.2509 16.8753 49.9356 17 49.5543 17C49.1729 17 48.8576 16.8753 48.6083 16.626C48.3589 16.362 48.2343 16.0393 48.2343 15.658V14.58L48.7183 14.778C48.7183 14.9687 48.6156 15.2033 48.4103 15.482C48.2049 15.746 47.9263 16.01 47.5743 16.274C47.2223 16.538 46.8043 16.7653 46.3203 16.956C45.8509 17.132 45.3376 17.22 44.7803 17.22C43.7683 17.22 42.8516 16.9633 42.0303 16.45C41.2089 15.922 40.5563 15.2033 40.0723 14.294C39.6029 13.37 39.3683 12.314 39.3683 11.126C39.3683 9.92333 39.6029 8.86733 40.0723 7.958C40.5563 7.034 41.2016 6.31533 42.0083 5.802C42.8149 5.274 43.7096 5.01 44.6923 5.01C45.3229 5.01 45.9023 5.10533 46.4303 5.296C46.9583 5.48667 47.4129 5.72867 47.7943 6.022C48.1903 6.31533 48.4909 6.616 48.6963 6.924C48.9163 7.21733 49.0263 7.46667 49.0263 7.672L48.2343 7.958V2.062C48.2343 1.68067 48.3589 1.36533 48.6083 1.116C48.8576 0.851999 49.1729 0.72 49.5543 0.72ZM45.1103 14.8C45.7556 14.8 46.3203 14.6387 46.8043 14.316C47.2883 13.9933 47.6623 13.5533 47.9263 12.996C48.2049 12.4387 48.3443 11.8153 48.3443 11.126C48.3443 10.422 48.2049 9.79133 47.9263 9.234C47.6623 8.67667 47.2883 8.23667 46.8043 7.914C46.3203 7.59133 45.7556 7.43 45.1103 7.43C44.4796 7.43 43.9223 7.59133 43.4383 7.914C42.9543 8.23667 42.5729 8.67667 42.2943 9.234C42.0303 9.79133 41.8983 10.422 41.8983 11.126C41.8983 11.8153 42.0303 12.4387 42.2943 12.996C42.5729 13.5533 42.9543 13.9933 43.4383 14.316C43.9223 14.6387 44.4796 14.8 45.1103 14.8ZM61.5048 17C61.0941 17 60.7568 16.8753 60.4928 16.626C60.2434 16.362 60.1188 16.0393 60.1188 15.658V2.942C60.1188 2.56067 60.2434 2.24533 60.4928 1.996C60.7568 1.732 61.0794 1.6 61.4608 1.6H68.6108C68.9921 1.6 69.3074 1.72467 69.5568 1.974C69.8208 2.20867 69.9528 2.51667 69.9528 2.898C69.9528 3.22067 69.8208 3.50667 69.5568 3.756C69.3074 4.00533 68.9921 4.13 68.6108 4.13H62.6708L62.8688 3.866V8.288L62.7148 8.002H67.6208C68.0021 8.002 68.3174 8.12667 68.5668 8.376C68.8308 8.61067 68.9628 8.91867 68.9628 9.3C68.9628 9.62267 68.8308 9.90867 68.5668 10.158C68.3174 10.4073 68.0021 10.532 67.6208 10.532H62.6708L62.8688 10.334V15.658C62.8688 16.0393 62.7294 16.362 62.4508 16.626C62.1868 16.8753 61.8714 17 61.5048 17ZM81.4586 5.01C81.8399 5.01 82.1552 5.13467 82.4046 5.384C82.6539 5.63333 82.7786 5.956 82.7786 6.352V15.658C82.7786 16.0393 82.6539 16.362 82.4046 16.626C82.1552 16.8753 81.8399 17 81.4586 17C81.0772 17 80.7619 16.8753 80.5126 16.626C80.2632 16.362 80.1386 16.0393 80.1386 15.658V14.58L80.6226 14.778C80.6226 14.9687 80.5199 15.2033 80.3146 15.482C80.1092 15.746 79.8306 16.01 79.4786 16.274C79.1266 16.538 78.7086 16.7653 78.2246 16.956C77.7552 17.132 77.2419 17.22 76.6846 17.22C75.6726 17.22 74.7559 16.9633 73.9346 16.45C73.1132 15.922 72.4606 15.2033 71.9766 14.294C71.5072 13.37 71.2726 12.314 71.2726 11.126C71.2726 9.92333 71.5072 8.86733 71.9766 7.958C72.4606 7.034 73.1059 6.31533 73.9126 5.802C74.7192 5.274 75.6139 5.01 76.5966 5.01C77.2272 5.01 77.8066 5.10533 78.3346 5.296C78.8626 5.48667 79.3172 5.72867 79.6986 6.022C80.0946 6.31533 80.3952 6.616 80.6006 6.924C80.8206 7.21733 80.9306 7.46667 80.9306 7.672L80.1386 7.958V6.352C80.1386 5.97067 80.2632 5.65533 80.5126 5.406C80.7619 5.142 81.0772 5.01 81.4586 5.01ZM77.0146 14.8C77.6599 14.8 78.2246 14.6387 78.7086 14.316C79.1926 13.9933 79.5666 13.5533 79.8306 12.996C80.1092 12.4387 80.2486 11.8153 80.2486 11.126C80.2486 10.422 80.1092 9.79133 79.8306 9.234C79.5666 8.67667 79.1926 8.23667 78.7086 7.914C78.2246 7.59133 77.6599 7.43 77.0146 7.43C76.3839 7.43 75.8266 7.59133 75.3426 7.914C74.8586 8.23667 74.4772 8.67667 74.1986 9.234C73.9346 9.79133 73.8026 10.422 73.8026 11.126C73.8026 11.8153 73.9346 12.4387 74.1986 12.996C74.4772 13.5533 74.8586 13.9933 75.3426 14.316C75.8266 14.6387 76.3839 14.8 77.0146 14.8ZM90.873 5.01C91.709 5.01 92.435 5.098 93.051 5.274C93.6817 5.45 94.1657 5.69933 94.503 6.022C94.855 6.33 95.031 6.704 95.031 7.144C95.031 7.43733 94.943 7.716 94.767 7.98C94.591 8.22933 94.3344 8.354 93.997 8.354C93.7624 8.354 93.5644 8.32467 93.403 8.266C93.2564 8.19267 93.1244 8.10467 93.007 8.002C92.8897 7.89933 92.7504 7.804 92.589 7.716C92.4424 7.628 92.215 7.562 91.907 7.518C91.6137 7.45933 91.3937 7.43 91.247 7.43C90.499 7.43 89.861 7.59133 89.333 7.914C88.8197 8.23667 88.4237 8.67667 88.145 9.234C87.8664 9.77667 87.727 10.4073 87.727 11.126C87.727 11.83 87.8664 12.4607 88.145 13.018C88.4384 13.5607 88.8344 13.9933 89.333 14.316C89.8464 14.6387 90.433 14.8 91.093 14.8C91.4597 14.8 91.775 14.778 92.039 14.734C92.303 14.69 92.523 14.624 92.699 14.536C92.9044 14.4187 93.0877 14.294 93.249 14.162C93.4104 14.03 93.6524 13.964 93.975 13.964C94.3564 13.964 94.6497 14.0887 94.855 14.338C95.0604 14.5727 95.163 14.866 95.163 15.218C95.163 15.5847 94.9577 15.922 94.547 16.23C94.1364 16.5233 93.5937 16.7653 92.919 16.956C92.259 17.132 91.5404 17.22 90.763 17.22C89.6044 17.22 88.5997 16.956 87.749 16.428C86.8984 15.8853 86.2384 15.152 85.769 14.228C85.3144 13.304 85.087 12.27 85.087 11.126C85.087 9.92333 85.329 8.86733 85.813 7.958C86.3117 7.034 86.9937 6.31533 87.859 5.802C88.739 5.274 89.7437 5.01 90.873 5.01ZM97.1987 5.45H102.413C102.765 5.45 103.058 5.56733 103.293 5.802C103.527 6.03667 103.645 6.33 103.645 6.682C103.645 7.01933 103.527 7.30533 103.293 7.54C103.058 7.76 102.765 7.87 102.413 7.87H97.1987C96.8467 7.87 96.5534 7.75267 96.3187 7.518C96.0841 7.28333 95.9667 6.99 95.9667 6.638C95.9667 6.30067 96.0841 6.022 96.3187 5.802C96.5534 5.56733 96.8467 5.45 97.1987 5.45ZM99.5527 2.7C99.9341 2.7 100.242 2.832 100.477 3.096C100.726 3.34533 100.851 3.66067 100.851 4.042V13.832C100.851 14.0373 100.887 14.206 100.961 14.338C101.049 14.47 101.159 14.5653 101.291 14.624C101.437 14.6827 101.591 14.712 101.753 14.712C101.929 14.712 102.09 14.6827 102.237 14.624C102.383 14.5507 102.552 14.514 102.743 14.514C102.948 14.514 103.131 14.6093 103.293 14.8C103.469 14.9907 103.557 15.2547 103.557 15.592C103.557 16.0027 103.329 16.34 102.875 16.604C102.435 16.868 101.958 17 101.445 17C101.137 17 100.792 16.978 100.411 16.934C100.044 16.8753 99.6921 16.7507 99.3547 16.56C99.0321 16.3547 98.7607 16.0467 98.5407 15.636C98.3207 15.2253 98.2107 14.6607 98.2107 13.942V4.042C98.2107 3.66067 98.3354 3.34533 98.5847 3.096C98.8487 2.832 99.1714 2.7 99.5527 2.7ZM117.379 11.126C117.379 12.3287 117.108 13.392 116.565 14.316C116.037 15.2253 115.319 15.9367 114.409 16.45C113.515 16.9633 112.51 17.22 111.395 17.22C110.281 17.22 109.269 16.9633 108.359 16.45C107.465 15.9367 106.746 15.2253 106.203 14.316C105.675 13.392 105.411 12.3287 105.411 11.126C105.411 9.92333 105.675 8.86733 106.203 7.958C106.746 7.034 107.465 6.31533 108.359 5.802C109.269 5.274 110.281 5.01 111.395 5.01C112.51 5.01 113.515 5.274 114.409 5.802C115.319 6.31533 116.037 7.034 116.565 7.958C117.108 8.86733 117.379 9.92333 117.379 11.126ZM114.739 11.126C114.739 10.378 114.585 9.73267 114.277 9.19C113.984 8.63267 113.581 8.2 113.067 7.892C112.569 7.584 112.011 7.43 111.395 7.43C110.779 7.43 110.215 7.584 109.701 7.892C109.203 8.2 108.799 8.63267 108.491 9.19C108.198 9.73267 108.051 10.378 108.051 11.126C108.051 11.8593 108.198 12.5047 108.491 13.062C108.799 13.6047 109.203 14.03 109.701 14.338C110.215 14.646 110.779 14.8 111.395 14.8C112.011 14.8 112.569 14.646 113.067 14.338C113.581 14.03 113.984 13.6047 114.277 13.062C114.585 12.5047 114.739 11.8593 114.739 11.126ZM121.01 17C120.628 17 120.313 16.8753 120.064 16.626C119.814 16.362 119.69 16.0393 119.69 15.658V6.572C119.69 6.19067 119.814 5.87533 120.064 5.626C120.313 5.362 120.628 5.23 121.01 5.23C121.391 5.23 121.706 5.362 121.956 5.626C122.205 5.87533 122.33 6.19067 122.33 6.572V8.64L122.176 7.166C122.337 6.814 122.542 6.506 122.792 6.242C123.056 5.96333 123.349 5.736 123.672 5.56C123.994 5.36933 124.339 5.23 124.706 5.142C125.072 5.054 125.439 5.01 125.806 5.01C126.246 5.01 126.612 5.13467 126.906 5.384C127.214 5.63333 127.368 5.92667 127.368 6.264C127.368 6.748 127.243 7.1 126.994 7.32C126.744 7.52533 126.473 7.628 126.18 7.628C125.901 7.628 125.644 7.57667 125.41 7.474C125.19 7.37133 124.933 7.32 124.64 7.32C124.376 7.32 124.104 7.386 123.826 7.518C123.562 7.63533 123.312 7.826 123.078 8.09C122.858 8.354 122.674 8.684 122.528 9.08C122.396 9.46133 122.33 9.916 122.33 10.444V15.658C122.33 16.0393 122.205 16.362 121.956 16.626C121.706 16.8753 121.391 17 121.01 17ZM137.963 5.23C138.344 5.23 138.659 5.362 138.909 5.626C139.158 5.87533 139.283 6.19067 139.283 6.572V15.922C139.283 17.2713 139.026 18.342 138.513 19.134C138.014 19.9407 137.339 20.52 136.489 20.872C135.638 21.224 134.685 21.4 133.629 21.4C133.159 21.4 132.661 21.3633 132.133 21.29C131.605 21.2167 131.172 21.1067 130.835 20.96C130.395 20.7693 130.087 20.5273 129.911 20.234C129.749 19.9553 129.72 19.6547 129.823 19.332C129.955 18.9067 130.167 18.6133 130.461 18.452C130.754 18.3053 131.062 18.2907 131.385 18.408C131.619 18.4813 131.927 18.5913 132.309 18.738C132.69 18.8993 133.13 18.98 133.629 18.98C134.303 18.98 134.861 18.8847 135.301 18.694C135.755 18.518 136.093 18.21 136.313 17.77C136.547 17.3447 136.665 16.758 136.665 16.01V14.536L137.127 15.064C136.877 15.548 136.562 15.9513 136.181 16.274C135.814 16.582 135.374 16.8167 134.861 16.978C134.347 17.1393 133.761 17.22 133.101 17.22C132.323 17.22 131.641 17.044 131.055 16.692C130.483 16.3253 130.035 15.8267 129.713 15.196C129.39 14.5507 129.229 13.8173 129.229 12.996V6.572C129.229 6.19067 129.353 5.87533 129.603 5.626C129.852 5.362 130.167 5.23 130.549 5.23C130.93 5.23 131.245 5.362 131.495 5.626C131.744 5.87533 131.869 6.19067 131.869 6.572V12.204C131.869 13.1573 132.074 13.832 132.485 14.228C132.91 14.6093 133.497 14.8 134.245 14.8C134.758 14.8 135.191 14.7047 135.543 14.514C135.895 14.3087 136.166 14.0153 136.357 13.634C136.547 13.238 136.643 12.7613 136.643 12.204V6.572C136.643 6.19067 136.767 5.87533 137.017 5.626C137.266 5.362 137.581 5.23 137.963 5.23Z" fill="#3B768D"/>
</svg>
