<svg width="125" height="11" viewBox="0 0 125 11" fill="none" xmlns="http://www.w3.org/2000/svg">
<path d="M1.9215 1.385V8H0.798V1.385H1.9215ZM6.12979 3.842H4.72279V6.5195C4.72279 6.7645 4.77879 6.929 4.89079 7.013C5.00979 7.097 5.16729 7.139 5.36329 7.139C5.50329 7.139 5.65029 7.125 5.80429 7.097C5.96529 7.062 6.10529 7.0235 6.22429 6.9815L6.39229 7.7795C6.25229 7.8355 6.07029 7.888 5.84629 7.937C5.62929 7.979 5.39829 8 5.15329 8C4.62129 8 4.23629 7.8915 3.99829 7.6745C3.76729 7.4505 3.65179 7.1215 3.65179 6.6875V3.842H2.89579V3.044H3.65179V1.4795H4.72279V3.044H6.12979V3.842ZM7.50898 1.553C7.31298 1.518 7.16248 1.434 7.05748 1.301C6.95248 1.161 6.89998 1 6.89998 0.818C6.89998 0.629 6.96298 0.4645 7.08898 0.3245C7.21498 0.1775 7.39348 0.104 7.62448 0.104C7.71548 0.104 7.80648 0.1215 7.89748 0.1565C7.99548 0.1915 8.08298 0.251 8.15998 0.335C8.24398 0.412 8.31048 0.520499 8.35948 0.660499C8.41548 0.8005 8.44348 0.9755 8.44348 1.1855C8.44348 1.3955 8.40848 1.595 8.33848 1.784C8.27548 1.973 8.18798 2.1515 8.07598 2.3195C7.96398 2.4805 7.83098 2.6275 7.67698 2.7605C7.52998 2.8935 7.37248 3.0055 7.20448 3.0965L6.86848 2.6345C7.06448 2.5295 7.23598 2.3895 7.38298 2.2145C7.53698 2.0395 7.63848 1.8295 7.68748 1.5845L7.50898 1.553ZM12.2646 4.052C12.0406 3.947 11.8306 3.8735 11.6346 3.8315C11.4456 3.7825 11.2566 3.758 11.0676 3.758C10.7736 3.758 10.5496 3.814 10.3956 3.926C10.2486 4.031 10.1751 4.1745 10.1751 4.3565C10.1751 4.4965 10.2311 4.619 10.3431 4.724C10.4551 4.822 10.6861 4.92 11.0361 5.018L11.3511 5.1125C11.8061 5.2525 12.1491 5.4345 12.3801 5.6585C12.6181 5.8825 12.7371 6.1835 12.7371 6.5615C12.7371 7.0235 12.5621 7.398 12.2121 7.685C11.8621 7.965 11.3826 8.105 10.7736 8.105C10.4446 8.105 10.1366 8.0735 9.84957 8.0105C9.56957 7.9545 9.31757 7.874 9.09357 7.769L9.34557 6.95C9.54857 7.048 9.76557 7.1285 9.99657 7.1915C10.2276 7.2545 10.4656 7.286 10.7106 7.286C11.0116 7.286 11.2461 7.2335 11.4141 7.1285C11.5821 7.0235 11.6661 6.8625 11.6661 6.6455C11.6661 6.4425 11.5891 6.299 11.4351 6.215C11.2881 6.124 11.0571 6.0295 10.7421 5.9315L10.4166 5.837C9.97557 5.69 9.64657 5.5045 9.42957 5.2805C9.21957 5.0565 9.11457 4.7625 9.11457 4.3985C9.11457 4.1815 9.16007 3.9855 9.25107 3.8105C9.34207 3.6355 9.46807 3.485 9.62907 3.359C9.79007 3.233 9.98257 3.135 10.2066 3.065C10.4376 2.995 10.6896 2.96 10.9626 2.96C11.2216 2.96 11.4841 2.9845 11.7501 3.0335C12.0231 3.0825 12.2751 3.1595 12.5061 3.2645L12.2646 4.052ZM18.8754 3.842H17.4684V6.5195C17.4684 6.7645 17.5244 6.929 17.6364 7.013C17.7554 7.097 17.9129 7.139 18.1089 7.139C18.2489 7.139 18.3959 7.125 18.5499 7.097C18.7109 7.062 18.8509 7.0235 18.9699 6.9815L19.1379 7.7795C18.9979 7.8355 18.8159 7.888 18.5919 7.937C18.3749 7.979 18.1439 8 17.8989 8C17.3669 8 16.9819 7.8915 16.7439 7.6745C16.5129 7.4505 16.3974 7.1215 16.3974 6.6875V3.842H15.6414V3.044H16.3974V1.4795H17.4684V3.044H18.8754V3.842ZM20.1471 8V3.044H21.2286V8H20.1471ZM20.6931 1.8155C20.5041 1.8155 20.3536 1.7595 20.2416 1.6475C20.1296 1.5285 20.0736 1.3815 20.0736 1.2065C20.0736 1.0315 20.1296 0.888 20.2416 0.776C20.3536 0.657 20.5041 0.5975 20.6931 0.5975C20.8751 0.5975 21.0221 0.657 21.1341 0.776C21.2531 0.888 21.3126 1.0315 21.3126 1.2065C21.3126 1.3885 21.2531 1.5355 21.1341 1.6475C21.0221 1.7595 20.8751 1.8155 20.6931 1.8155ZM23.7996 8H22.7181V3.044H23.5581L23.7051 3.7055C23.9361 3.4745 24.1846 3.2925 24.4506 3.1595C24.7166 3.0265 25.0281 2.96 25.3851 2.96C25.7421 2.96 26.0326 3.03 26.2566 3.17C26.4876 3.31 26.6626 3.506 26.7816 3.758C27.0196 3.506 27.2821 3.31 27.5691 3.17C27.8631 3.03 28.1851 2.96 28.5351 2.96C29.0531 2.96 29.4416 3.1035 29.7006 3.3905C29.9666 3.6705 30.0996 4.0695 30.0996 4.5875V8H29.0181V4.7555C29.0181 4.4545 28.9516 4.2235 28.8186 4.0625C28.6926 3.9015 28.4826 3.821 28.1886 3.821C27.7406 3.821 27.3276 4.0205 26.9496 4.4195V8H25.8681V4.7555C25.8681 4.4545 25.8016 4.2235 25.6686 4.0625C25.5426 3.9015 25.3326 3.821 25.0386 3.821C24.5906 3.821 24.1776 4.031 23.7996 4.451V8ZM35.7695 5.711H32.294V5.753C32.294 6.257 32.441 6.6385 32.735 6.8975C33.029 7.1565 33.4175 7.286 33.9005 7.286C34.1665 7.286 34.4045 7.265 34.6145 7.223C34.8315 7.174 35.0485 7.1005 35.2655 7.0025L35.4755 7.79C35.2725 7.881 35.031 7.9545 34.751 8.0105C34.471 8.0735 34.163 8.105 33.827 8.105C33.47 8.105 33.1305 8.056 32.8085 7.958C32.4865 7.86 32.203 7.706 31.958 7.496C31.72 7.286 31.531 7.02 31.391 6.698C31.251 6.376 31.181 5.991 31.181 5.543C31.181 5.158 31.237 4.808 31.349 4.493C31.468 4.171 31.6325 3.898 31.8425 3.674C32.0595 3.443 32.3185 3.268 32.6195 3.149C32.9275 3.023 33.267 2.96 33.638 2.96C33.96 2.96 34.2505 3.0125 34.5095 3.1175C34.7755 3.2225 34.9995 3.373 35.1815 3.569C35.3705 3.758 35.514 3.9925 35.612 4.2725C35.717 4.5455 35.7695 4.85 35.7695 5.186V5.711ZM34.6565 4.955C34.6565 4.787 34.6355 4.6295 34.5935 4.4825C34.5515 4.3355 34.4885 4.2095 34.4045 4.1045C34.3205 3.9925 34.2085 3.905 34.0685 3.842C33.9355 3.772 33.7745 3.737 33.5855 3.737C33.2355 3.737 32.9485 3.849 32.7245 4.073C32.5075 4.297 32.3745 4.598 32.3255 4.976L34.6565 4.955ZM41.9159 3.842H40.5089V6.5195C40.5089 6.7645 40.5649 6.929 40.6769 7.013C40.7959 7.097 40.9534 7.139 41.1494 7.139C41.2894 7.139 41.4364 7.125 41.5904 7.097C41.7514 7.062 41.8914 7.0235 42.0104 6.9815L42.1784 7.7795C42.0384 7.8355 41.8564 7.888 41.6324 7.937C41.4154 7.979 41.1844 8 40.9394 8C40.4074 8 40.0224 7.8915 39.7844 7.6745C39.5534 7.4505 39.4379 7.1215 39.4379 6.6875V3.842H38.6819V3.044H39.4379V1.4795H40.5089V3.044H41.9159V3.842ZM47.7131 5.4695C47.7131 5.8825 47.6466 6.2535 47.5136 6.5825C47.3876 6.9115 47.2126 7.188 46.9886 7.412C46.7646 7.636 46.5021 7.8075 46.2011 7.9265C45.9001 8.0455 45.5746 8.105 45.2246 8.105C44.8746 8.105 44.5491 8.049 44.2481 7.937C43.9541 7.825 43.6951 7.664 43.4711 7.454C43.2541 7.237 43.0826 6.971 42.9566 6.656C42.8376 6.341 42.7781 5.9805 42.7781 5.5745C42.7781 5.1545 42.8411 4.7835 42.9671 4.4615C43.1001 4.1395 43.2786 3.8665 43.5026 3.6425C43.7266 3.4185 43.9891 3.2505 44.2901 3.1385C44.5911 3.0195 44.9166 2.96 45.2666 2.96C45.6166 2.96 45.9386 3.016 46.2326 3.128C46.5336 3.233 46.7926 3.3905 47.0096 3.6005C47.2336 3.8105 47.4051 4.073 47.5241 4.388C47.6501 4.703 47.7131 5.0635 47.7131 5.4695ZM46.5896 5.522C46.5896 5.207 46.5511 4.941 46.4741 4.724C46.3971 4.5 46.2956 4.318 46.1696 4.178C46.0436 4.038 45.9001 3.9365 45.7391 3.8735C45.5781 3.8105 45.4101 3.779 45.2351 3.779C45.0671 3.779 44.9026 3.807 44.7416 3.863C44.5806 3.919 44.4371 4.0135 44.3111 4.1465C44.1851 4.2795 44.0836 4.458 44.0066 4.682C43.9366 4.906 43.9016 5.186 43.9016 5.522C43.9016 5.83 43.9401 6.096 44.0171 6.32C44.0941 6.544 44.1956 6.7295 44.3216 6.8765C44.4476 7.0165 44.5911 7.1215 44.7521 7.1915C44.9201 7.2545 45.0881 7.286 45.2561 7.286C45.4241 7.286 45.5886 7.258 45.7496 7.202C45.9106 7.146 46.0541 7.0515 46.1801 6.9185C46.3061 6.7785 46.4041 6.5965 46.4741 6.3725C46.5511 6.1415 46.5896 5.858 46.5896 5.522ZM54.0185 4.052C53.7945 3.947 53.5845 3.8735 53.3885 3.8315C53.1995 3.7825 53.0105 3.758 52.8215 3.758C52.5275 3.758 52.3035 3.814 52.1495 3.926C52.0025 4.031 51.929 4.1745 51.929 4.3565C51.929 4.4965 51.985 4.619 52.097 4.724C52.209 4.822 52.44 4.92 52.79 5.018L53.105 5.1125C53.56 5.2525 53.903 5.4345 54.134 5.6585C54.372 5.8825 54.491 6.1835 54.491 6.5615C54.491 7.0235 54.316 7.398 53.966 7.685C53.616 7.965 53.1365 8.105 52.5275 8.105C52.1985 8.105 51.8905 8.0735 51.6035 8.0105C51.3235 7.9545 51.0715 7.874 50.8475 7.769L51.0995 6.95C51.3025 7.048 51.5195 7.1285 51.7505 7.1915C51.9815 7.2545 52.2195 7.286 52.4645 7.286C52.7655 7.286 53 7.2335 53.168 7.1285C53.336 7.0235 53.42 6.8625 53.42 6.6455C53.42 6.4425 53.343 6.299 53.189 6.215C53.042 6.124 52.811 6.0295 52.496 5.9315L52.1705 5.837C51.7295 5.69 51.4005 5.5045 51.1835 5.2805C50.9735 5.0565 50.8685 4.7625 50.8685 4.3985C50.8685 4.1815 50.914 3.9855 51.005 3.8105C51.096 3.6355 51.222 3.485 51.383 3.359C51.544 3.233 51.7365 3.135 51.9605 3.065C52.1915 2.995 52.4435 2.96 52.7165 2.96C52.9755 2.96 53.238 2.9845 53.504 3.0335C53.777 3.0825 54.029 3.1595 54.26 3.2645L54.0185 4.052ZM57.9666 7.286C58.1906 7.286 58.3866 7.2615 58.5546 7.2125C58.7296 7.1565 58.8871 7.0935 59.0271 7.0235L59.2476 7.8005C59.0796 7.8915 58.8766 7.965 58.6386 8.021C58.4006 8.077 58.1381 8.105 57.8511 8.105C57.4871 8.105 57.1441 8.0525 56.8221 7.9475C56.5071 7.8355 56.2306 7.6745 55.9926 7.4645C55.7616 7.2475 55.5761 6.978 55.4361 6.656C55.3031 6.334 55.2366 5.9595 55.2366 5.5325C55.2366 5.1405 55.2996 4.787 55.4256 4.472C55.5516 4.15 55.7301 3.877 55.9611 3.653C56.1921 3.429 56.4686 3.2575 56.7906 3.1385C57.1126 3.0195 57.4661 2.96 57.8511 2.96C58.0681 2.96 58.2851 2.9775 58.5021 3.0125C58.7261 3.0475 58.9711 3.128 59.2371 3.254L58.9956 4.0415C58.6666 3.8595 58.3236 3.7685 57.9666 3.7685C57.4836 3.7685 57.0916 3.919 56.7906 4.22C56.4896 4.521 56.3391 4.948 56.3391 5.501C56.3391 5.837 56.3846 6.1205 56.4756 6.3515C56.5736 6.5755 56.6996 6.7575 56.8536 6.8975C57.0076 7.0375 57.1791 7.139 57.3681 7.202C57.5641 7.258 57.7636 7.286 57.9666 7.286ZM64.5603 5.4695C64.5603 5.8825 64.4938 6.2535 64.3608 6.5825C64.2348 6.9115 64.0598 7.188 63.8358 7.412C63.6118 7.636 63.3493 7.8075 63.0483 7.9265C62.7473 8.0455 62.4218 8.105 62.0718 8.105C61.7218 8.105 61.3963 8.049 61.0953 7.937C60.8013 7.825 60.5423 7.664 60.3183 7.454C60.1013 7.237 59.9298 6.971 59.8038 6.656C59.6848 6.341 59.6253 5.9805 59.6253 5.5745C59.6253 5.1545 59.6883 4.7835 59.8143 4.4615C59.9473 4.1395 60.1258 3.8665 60.3498 3.6425C60.5738 3.4185 60.8363 3.2505 61.1373 3.1385C61.4383 3.0195 61.7638 2.96 62.1138 2.96C62.4638 2.96 62.7858 3.016 63.0798 3.128C63.3808 3.233 63.6398 3.3905 63.8568 3.6005C64.0808 3.8105 64.2523 4.073 64.3713 4.388C64.4973 4.703 64.5603 5.0635 64.5603 5.4695ZM63.4368 5.522C63.4368 5.207 63.3983 4.941 63.3213 4.724C63.2443 4.5 63.1428 4.318 63.0168 4.178C62.8908 4.038 62.7473 3.9365 62.5863 3.8735C62.4253 3.8105 62.2573 3.779 62.0823 3.779C61.9143 3.779 61.7498 3.807 61.5888 3.863C61.4278 3.919 61.2843 4.0135 61.1583 4.1465C61.0323 4.2795 60.9308 4.458 60.8538 4.682C60.7838 4.906 60.7488 5.186 60.7488 5.522C60.7488 5.83 60.7873 6.096 60.8643 6.32C60.9413 6.544 61.0428 6.7295 61.1688 6.8765C61.2948 7.0165 61.4383 7.1215 61.5993 7.1915C61.7673 7.2545 61.9353 7.286 62.1033 7.286C62.2713 7.286 62.4358 7.258 62.5968 7.202C62.7578 7.146 62.9013 7.0515 63.0273 6.9185C63.1533 6.7785 63.2513 6.5965 63.3213 6.3725C63.3983 6.1415 63.4368 5.858 63.4368 5.522ZM65.6305 8V3.044H66.4495L66.607 3.9995C66.726 3.7055 66.9185 3.4605 67.1845 3.2645C67.4505 3.0615 67.7725 2.96 68.1505 2.96C68.3185 2.96 68.462 2.974 68.581 3.002C68.707 3.03 68.819 3.0685 68.917 3.1175L68.7175 4.0205C68.6335 3.9785 68.5355 3.9435 68.4235 3.9155C68.3185 3.8875 68.196 3.8735 68.056 3.8735C67.671 3.8735 67.349 4.0065 67.09 4.2725C66.831 4.5315 66.7015 4.927 66.7015 5.459V8H65.6305ZM73.6372 5.711H70.1617V5.753C70.1617 6.257 70.3087 6.6385 70.6027 6.8975C70.8967 7.1565 71.2852 7.286 71.7682 7.286C72.0342 7.286 72.2722 7.265 72.4822 7.223C72.6992 7.174 72.9162 7.1005 73.1332 7.0025L73.3432 7.79C73.1402 7.881 72.8987 7.9545 72.6187 8.0105C72.3387 8.0735 72.0307 8.105 71.6947 8.105C71.3377 8.105 70.9982 8.056 70.6762 7.958C70.3542 7.86 70.0707 7.706 69.8257 7.496C69.5877 7.286 69.3987 7.02 69.2587 6.698C69.1187 6.376 69.0487 5.991 69.0487 5.543C69.0487 5.158 69.1047 4.808 69.2167 4.493C69.3357 4.171 69.5002 3.898 69.7102 3.674C69.9272 3.443 70.1862 3.268 70.4872 3.149C70.7952 3.023 71.1347 2.96 71.5057 2.96C71.8277 2.96 72.1182 3.0125 72.3772 3.1175C72.6432 3.2225 72.8672 3.373 73.0492 3.569C73.2382 3.758 73.3817 3.9925 73.4797 4.2725C73.5847 4.5455 73.6372 4.85 73.6372 5.186V5.711ZM72.5242 4.955C72.5242 4.787 72.5032 4.6295 72.4612 4.4825C72.4192 4.3355 72.3562 4.2095 72.2722 4.1045C72.1882 3.9925 72.0762 3.905 71.9362 3.842C71.8032 3.772 71.6422 3.737 71.4532 3.737C71.1032 3.737 70.8162 3.849 70.5922 4.073C70.3752 4.297 70.2422 4.598 70.1932 4.976L72.5242 4.955ZM81.6946 5.4695C81.6946 5.8825 81.6281 6.2535 81.4951 6.5825C81.3691 6.9115 81.1941 7.188 80.9701 7.412C80.7461 7.636 80.4836 7.8075 80.1826 7.9265C79.8816 8.0455 79.5561 8.105 79.2061 8.105C78.8561 8.105 78.5306 8.049 78.2296 7.937C77.9356 7.825 77.6766 7.664 77.4526 7.454C77.2356 7.237 77.0641 6.971 76.9381 6.656C76.8191 6.341 76.7596 5.9805 76.7596 5.5745C76.7596 5.1545 76.8226 4.7835 76.9486 4.4615C77.0816 4.1395 77.2601 3.8665 77.4841 3.6425C77.7081 3.4185 77.9706 3.2505 78.2716 3.1385C78.5726 3.0195 78.8981 2.96 79.2481 2.96C79.5981 2.96 79.9201 3.016 80.2141 3.128C80.5151 3.233 80.7741 3.3905 80.9911 3.6005C81.2151 3.8105 81.3866 4.073 81.5056 4.388C81.6316 4.703 81.6946 5.0635 81.6946 5.4695ZM80.5711 5.522C80.5711 5.207 80.5326 4.941 80.4556 4.724C80.3786 4.5 80.2771 4.318 80.1511 4.178C80.0251 4.038 79.8816 3.9365 79.7206 3.8735C79.5596 3.8105 79.3916 3.779 79.2166 3.779C79.0486 3.779 78.8841 3.807 78.7231 3.863C78.5621 3.919 78.4186 4.0135 78.2926 4.1465C78.1666 4.2795 78.0651 4.458 77.9881 4.682C77.9181 4.906 77.8831 5.186 77.8831 5.522C77.8831 5.83 77.9216 6.096 77.9986 6.32C78.0756 6.544 78.1771 6.7295 78.3031 6.8765C78.4291 7.0165 78.5726 7.1215 78.7336 7.1915C78.9016 7.2545 79.0696 7.286 79.2376 7.286C79.4056 7.286 79.5701 7.258 79.7311 7.202C79.8921 7.146 80.0356 7.0515 80.1616 6.9185C80.2876 6.7785 80.3856 6.5965 80.4556 6.3725C80.5326 6.1415 80.5711 5.858 80.5711 5.522ZM83.8568 8H82.7753V3.044H83.6258L83.7728 3.7055C84.0178 3.4675 84.2733 3.2855 84.5393 3.1595C84.8123 3.0265 85.1203 2.96 85.4633 2.96C85.9883 2.96 86.3943 3.1035 86.6813 3.3905C86.9683 3.6775 87.1118 4.087 87.1118 4.619V8H86.0303V4.7555C86.0303 4.4685 85.9568 4.241 85.8098 4.073C85.6628 3.905 85.4423 3.821 85.1483 3.821C84.9243 3.821 84.7003 3.877 84.4763 3.989C84.2593 4.094 84.0528 4.248 83.8568 4.451V8ZM91.9579 8H90.8764V0.5345H91.9579V3.611C92.1819 3.429 92.4269 3.275 92.6929 3.149C92.9659 3.023 93.2669 2.96 93.5959 2.96C93.8759 2.96 94.1209 3.002 94.3309 3.086C94.5409 3.17 94.7124 3.2855 94.8454 3.4325C94.9854 3.5795 95.0869 3.7545 95.1499 3.9575C95.2199 4.1605 95.2549 4.381 95.2549 4.619V8H94.1734V4.8605C94.1734 4.4895 94.0964 4.2235 93.9424 4.0625C93.7884 3.9015 93.5644 3.821 93.2704 3.821C93.0534 3.821 92.8294 3.877 92.5984 3.989C92.3744 4.094 92.1609 4.241 91.9579 4.43V8ZM99.9148 3.044H100.996V8H100.167L100.03 7.4015H99.9883C99.8133 7.5835 99.5928 7.748 99.3268 7.895C99.0608 8.035 98.7388 8.105 98.3608 8.105C97.8358 8.105 97.4158 7.958 97.1008 7.664C96.7858 7.37 96.6283 6.929 96.6283 6.341V3.044H97.7098V6.2255C97.7098 6.6105 97.7973 6.88 97.9723 7.034C98.1543 7.188 98.3713 7.265 98.6233 7.265C98.8963 7.265 99.1378 7.209 99.3478 7.097C99.5578 6.978 99.7468 6.824 99.9148 6.635V3.044ZM103.442 8H102.36V3.044H103.211L103.358 3.7055C103.603 3.4675 103.858 3.2855 104.124 3.1595C104.397 3.0265 104.705 2.96 105.048 2.96C105.573 2.96 105.979 3.1035 106.266 3.3905C106.553 3.6775 106.697 4.087 106.697 4.619V8H105.615V4.7555C105.615 4.4685 105.542 4.241 105.395 4.073C105.248 3.905 105.027 3.821 104.733 3.821C104.509 3.821 104.285 3.877 104.061 3.989C103.844 4.094 103.638 4.248 103.442 4.451V8ZM107.957 4.703C107.957 4.43 108.006 4.185 108.104 3.968C108.209 3.751 108.353 3.569 108.535 3.422C108.717 3.268 108.934 3.1525 109.186 3.0755C109.438 2.9985 109.711 2.96 110.005 2.96C110.222 2.96 110.442 2.988 110.666 3.044H112.798V3.7895H112.43L111.653 3.6845C111.772 3.8175 111.867 3.9715 111.937 4.1465C112.007 4.3215 112.042 4.5035 112.042 4.6925C112.042 4.9655 111.993 5.2105 111.895 5.4275C111.797 5.6375 111.657 5.8195 111.475 5.9735C111.3 6.1205 111.086 6.2325 110.834 6.3095C110.582 6.3865 110.306 6.425 110.005 6.425C109.907 6.425 109.812 6.4215 109.721 6.4145C109.637 6.4075 109.553 6.397 109.469 6.383C109.336 6.439 109.242 6.5055 109.186 6.5825C109.13 6.6595 109.102 6.7435 109.102 6.8345C109.102 6.9745 109.151 7.0725 109.249 7.1285C109.347 7.1845 109.487 7.2125 109.669 7.2125H110.918C111.464 7.2125 111.888 7.3385 112.189 7.5905C112.497 7.8355 112.651 8.189 112.651 8.651C112.651 8.924 112.588 9.169 112.462 9.386C112.343 9.61 112.168 9.799 111.937 9.953C111.713 10.114 111.44 10.2365 111.118 10.3205C110.796 10.4045 110.435 10.4465 110.036 10.4465C109.301 10.4465 108.72 10.317 108.293 10.058C107.866 9.799 107.653 9.4175 107.653 8.9135C107.653 8.6685 107.733 8.4585 107.894 8.2835C108.055 8.1085 108.269 7.972 108.535 7.874C108.409 7.79 108.307 7.692 108.23 7.58C108.153 7.461 108.115 7.307 108.115 7.118C108.115 6.894 108.181 6.705 108.314 6.551C108.447 6.39 108.622 6.264 108.839 6.173C108.587 6.054 108.377 5.8755 108.209 5.6375C108.041 5.3925 107.957 5.081 107.957 4.703ZM109.154 8.0525C108.832 8.2065 108.671 8.4375 108.671 8.7455C108.671 9.0255 108.783 9.239 109.007 9.386C109.238 9.533 109.595 9.6065 110.078 9.6065C110.351 9.6065 110.582 9.5785 110.771 9.5225C110.96 9.4735 111.114 9.407 111.233 9.323C111.359 9.239 111.45 9.1445 111.506 9.0395C111.562 8.9345 111.59 8.826 111.59 8.714C111.59 8.448 111.499 8.2695 111.317 8.1785C111.142 8.0945 110.908 8.0525 110.614 8.0525H109.154ZM110.96 4.7135C110.96 4.3775 110.873 4.129 110.698 3.968C110.523 3.8 110.292 3.716 110.005 3.716C109.711 3.716 109.476 3.7965 109.301 3.9575C109.133 4.1185 109.049 4.36 109.049 4.682C109.049 5.018 109.137 5.2665 109.312 5.4275C109.487 5.5885 109.718 5.669 110.005 5.669C110.299 5.669 110.53 5.5885 110.698 5.4275C110.873 5.2665 110.96 5.0285 110.96 4.7135ZM117.985 5.711H114.51V5.753C114.51 6.257 114.657 6.6385 114.951 6.8975C115.245 7.1565 115.633 7.286 116.116 7.286C116.382 7.286 116.62 7.265 116.83 7.223C117.047 7.174 117.264 7.1005 117.481 7.0025L117.691 7.79C117.488 7.881 117.247 7.9545 116.967 8.0105C116.687 8.0735 116.379 8.105 116.043 8.105C115.686 8.105 115.346 8.056 115.024 7.958C114.702 7.86 114.419 7.706 114.174 7.496C113.936 7.286 113.747 7.02 113.607 6.698C113.467 6.376 113.397 5.991 113.397 5.543C113.397 5.158 113.453 4.808 113.565 4.493C113.684 4.171 113.848 3.898 114.058 3.674C114.275 3.443 114.534 3.268 114.835 3.149C115.143 3.023 115.483 2.96 115.854 2.96C116.176 2.96 116.466 3.0125 116.725 3.1175C116.991 3.2225 117.215 3.373 117.397 3.569C117.586 3.758 117.73 3.9925 117.828 4.2725C117.933 4.5455 117.985 4.85 117.985 5.186V5.711ZM116.872 4.955C116.872 4.787 116.851 4.6295 116.809 4.4825C116.767 4.3355 116.704 4.2095 116.62 4.1045C116.536 3.9925 116.424 3.905 116.284 3.842C116.151 3.772 115.99 3.737 115.801 3.737C115.451 3.737 115.164 3.849 114.94 4.073C114.723 4.297 114.59 4.598 114.541 4.976L116.872 4.955ZM119.023 8V3.044H119.842L119.999 3.9995C120.118 3.7055 120.311 3.4605 120.577 3.2645C120.843 3.0615 121.165 2.96 121.543 2.96C121.711 2.96 121.854 2.974 121.973 3.002C122.099 3.03 122.211 3.0685 122.309 3.1175L122.11 4.0205C122.026 3.9785 121.928 3.9435 121.816 3.9155C121.711 3.8875 121.588 3.8735 121.448 3.8735C121.063 3.8735 120.741 4.0065 120.482 4.2725C120.223 4.5315 120.094 4.927 120.094 5.459V8H119.023ZM123.075 0.545H124.219L124.072 5.753H123.201L123.075 0.545ZM122.949 7.391C122.949 7.188 123.019 7.02 123.159 6.887C123.299 6.754 123.46 6.6875 123.642 6.6875C123.831 6.6875 123.992 6.754 124.125 6.887C124.258 7.02 124.324 7.188 124.324 7.391C124.324 7.608 124.258 7.783 124.125 7.916C123.992 8.042 123.831 8.105 123.642 8.105C123.46 8.105 123.299 8.042 123.159 7.916C123.019 7.783 122.949 7.608 122.949 7.391Z" fill="#8FA2C0"/>
</svg>
