<svg width="52" height="52" viewBox="0 0 52 52" fill="none" xmlns="http://www.w3.org/2000/svg">
<path d="M48.4209 29.1517C51.5336 23.2221 45.2067 19.11 36.9346 17.0934C37.557 15.6788 37.7374 13.8271 35.9824 12.0591C33.7318 9.79631 35.2276 6.5 35.2276 6.5C35.2276 6.5 30.5037 10.8574 33.4864 13.8621C34.5865 14.9695 35.1593 15.9421 35.4331 16.7554C33.1495 16.2847 30.8372 15.966 28.5114 15.8015C29.2061 13.9132 29.2736 11.5416 27.0847 9.27063C24.0882 6.15794 26.0837 1.625 26.0837 1.625C26.0837 1.625 19.7844 7.61637 23.7616 11.7471C25.2135 13.2535 25.9781 14.5795 26.3486 15.691C23.8834 15.6171 21.5109 15.7251 19.4033 16.0201C19.6544 14.8054 19.4448 13.4087 18.1049 12.0599C15.8543 9.79712 17.3509 6.5 17.3509 6.5C17.3509 6.5 12.6263 10.8574 15.6098 13.8621C16.5441 14.8029 17.0918 15.6431 17.4062 16.3751C17.0503 16.4531 16.705 16.5376 16.3727 16.6294C6.10107 15.6682 1.62095 17.7905 3.66763 21.9538C0.0958828 25.5255 1.43813 29.6018 5.90769 32.721C8.23957 42.3256 8.84001 50.375 26.403 50.375C42.0745 50.375 44.2398 43.9644 46.1809 35.7598C52.0049 34.6003 50.7642 31.8086 48.4209 29.1517ZM46.969 28.1921C45.0182 32.3521 36.5519 35.4835 26.403 35.4835C16.2549 35.4835 7.78863 32.3521 5.83701 28.1921C5.79557 28.0686 5.75576 27.9403 5.71594 27.8151C6.64544 25.4573 9.66632 23.4114 13.9092 22.0415C12.9123 23.0051 12.7051 24.4441 15.3286 24.9486C16.0794 25.0933 18.1407 24.5928 17.2396 22.035C17.1137 21.6775 16.9081 21.4378 16.6554 21.2932C19.5707 20.6261 22.88 20.2418 26.403 20.2418C26.7979 20.2418 27.1854 20.2556 27.5746 20.2646C25.5418 20.9861 23.8834 23.2091 28.0345 23.8647C28.951 24.0094 31.4673 23.5089 30.3672 20.9511C30.2711 20.7232 30.117 20.5243 29.9203 20.3743C33.8098 20.6602 37.3336 21.4094 40.1822 22.4892C37.6773 22.3494 34.8985 23.8932 39.3486 26.0666C40.3033 26.533 43.2039 26.9612 42.8049 24.1369C42.7761 23.9329 42.7041 23.7373 42.5937 23.5633C44.8711 24.7634 46.4596 26.2186 47.0893 27.8151L46.969 28.1921Z" fill="#3B768D"/>
<path d="M20.9926 29.9333C23.6194 29.9333 25.3711 27.5584 26.7434 26.6289C28.6609 25.3289 33.4823 24.8219 29.2362 24.7195C25.2086 24.6228 20.2361 27.8923 16.913 27.6673C11.4107 27.2935 17.0462 29.9333 20.9926 29.9333Z" fill="#3B768D"/>
<path d="M26.6687 34.7855C27.5966 34.9643 30.147 34.3451 29.0315 31.1821C27.7713 27.603 20.1427 33.5294 26.6687 34.7855Z" fill="#3B768D"/>
<path d="M12.2257 26.9571C11.3393 25.7058 10.0539 24.119 9.52172 24.9453C8.79453 26.0755 8.56541 28.3497 9.09353 28.4505C13.234 29.2443 12.944 27.9703 12.2257 26.9571Z" fill="#3B768D"/>
<path d="M36.296 27.4642C37.0427 26.5395 35.5518 24.3141 34.5946 24.7033C33.0964 25.3127 32.2327 24.8999 31.5746 25.8245C30.0333 27.9899 35.2812 28.7195 36.296 27.4642Z" fill="#3B768D"/>
<path d="M35.8296 30.1137C34.7555 29.64 35.009 31.2269 33.4222 29.9537C32.2863 29.042 29.8423 31.3414 31.4543 32.903C33.2483 34.641 33.7261 32.9892 34.4801 33.1281C36.0124 33.41 38.6474 31.3569 35.8296 30.1137Z" fill="#3B768D"/>
<path d="M17.9692 30.6564C17.4094 30.1056 16.6587 30.7702 16.2346 31.5811C15.8145 31.3747 15.4724 31.3267 15.4724 31.3267C15.1515 30.4119 14.1968 29.7846 14.1968 29.7846C14.1968 29.7846 14.2837 30.7361 14.4097 31.2C13.3551 30.8254 13.3225 28.9404 13.3225 28.9404C13.3225 28.9404 12.6149 29.3637 12.679 30.0828C11.518 29.146 10.5292 29.5839 10.5292 29.5839C10.5292 29.5839 12.0022 30.4127 12.2054 30.9717C11.3782 31.0359 10.8956 31.3219 10.6145 31.9873C10.6153 31.993 12.2492 31.2097 13.4582 31.7752C12.9813 32.1652 13.2185 33.1394 13.2185 33.1394C14.3439 31.9467 15.2425 32.0742 15.9616 32.2879C15.8746 32.6527 15.8803 32.9859 16.0347 33.1882C17.2819 34.8278 21.6263 34.4589 22.7931 33.2467C24.206 31.7801 20.28 32.9306 17.9692 30.6564Z" fill="#3B768D"/>
<path d="M21.0381 24.4806C20.6684 25.2232 20.666 25.7839 21.0933 26.3672C21.099 26.3689 21.2656 24.5651 22.3714 23.8176C22.4616 24.427 23.4187 24.7227 23.4187 24.7227C22.6533 22.0123 24.8877 21.8709 24.8772 20.8983C23.6925 20.9983 23.0198 21.8595 23.0198 21.8595C22.07 21.6653 21.0405 22.1618 21.0405 22.1618C21.0405 22.1618 21.9026 22.5753 22.3649 22.7061C21.502 23.4187 19.8673 22.4786 19.8673 22.4786C19.8673 22.4786 19.8673 23.3041 20.5173 23.6169C19.1173 24.1329 18.9857 25.2054 18.9857 25.2054C18.9857 25.2054 20.4531 24.3677 21.0381 24.4806Z" fill="#3B768D"/>
<path d="M41.7982 28.1823C42.1346 27.5437 41.6439 26.8799 41.6439 26.8799C41.6439 26.8799 40.889 28.6081 39.7719 28.5488C40.066 28.1685 40.5129 27.3235 40.5129 27.3235C40.5129 27.3235 39.39 27.5372 38.7416 28.2579C38.7416 28.2579 37.6886 27.9662 36.6779 28.5902C37.2482 29.3783 39.1284 28.162 40.1253 30.7961C40.1253 30.7961 40.7184 29.9893 40.4284 29.4458C41.7625 29.3881 42.9699 30.7384 42.9739 30.7336C42.969 30.0104 42.6343 29.5619 41.8941 29.1849C42.2971 28.747 43.9757 28.5479 43.9757 28.5479C43.9757 28.5479 43.2315 27.7639 41.7982 28.1823Z" fill="#3B768D"/>
</svg>
