<svg width="23" height="36" viewBox="0 0 23 36" fill="none" xmlns="http://www.w3.org/2000/svg">
<path fill-rule="evenodd" clip-rule="evenodd" d="M2.17348 0.854178C1.65759 1.01995 1.28982 1.26123 0.874547 1.7065C0.467071 2.1434 0.224515 2.64638 0.11887 3.27372C0.0639211 3.59966 0.0471878 7.80417 0.06151 17.6314L0.0818592 31.5283L0.237206 31.9395C0.546766 32.7585 1.22367 33.4583 2.00728 33.7692C2.39157 33.9216 2.54472 33.9354 4.11727 33.9598L5.81282 33.9859L5.14535 33.4233C4.24007 32.6603 3.83607 32.2111 3.59316 31.6973C2.62874 29.6582 4.39712 27.2751 6.63877 27.593C7.05638 27.6522 7.88204 27.8822 8.28881 28.0527C8.40601 28.1018 8.41288 27.9114 8.41288 24.6229V21.1411H5.71158C2.70525 21.1411 2.6408 21.1321 2.4271 20.6818C2.28784 20.3883 2.28799 20.3337 2.4288 20.0371C2.50303 19.8806 2.63789 19.7558 2.81876 19.6759L3.09521 19.554V18.9388C3.09521 15.6716 5.36231 12.8388 8.48131 12.2088L9.08646 12.0865L9.12581 11.5621C9.17041 10.9688 9.27052 10.7651 9.59284 10.6121C9.8717 10.4797 9.93197 10.4797 10.2108 10.6121C10.5331 10.7651 10.6333 10.9688 10.6779 11.5621L10.7172 12.0865L11.3326 12.2109C12.3716 12.4208 13.4555 12.951 14.277 13.6514C15.8357 14.9803 16.7085 16.8783 16.7085 18.9388V19.554L16.9849 19.6759C17.1658 19.7558 17.3006 19.8806 17.3749 20.0371C17.5157 20.3337 17.5158 20.3883 17.3766 20.6818C17.1877 21.0798 16.9527 21.1411 15.6165 21.1411H14.4396V21.8764V22.6118L14.8028 22.66C15.287 22.7242 15.7602 22.9104 16.1834 23.2032L16.5312 23.444L17.382 23.4447C18.1643 23.4454 18.2671 23.4614 18.6583 23.6438C18.8923 23.7529 19.2054 23.9396 19.3543 24.0587C19.5031 24.1777 19.6467 24.2532 19.6733 24.2266C19.7588 24.1411 19.7721 3.78776 19.687 3.27372C19.5721 2.57937 19.2646 2.01258 18.7331 1.51541C18.1186 0.940537 17.6934 0.778454 16.6907 0.737047L15.9285 0.705566V1.69317C15.9285 3.12376 15.7329 3.68162 14.9823 4.39157C14.1102 5.2163 13.8741 5.25651 9.90183 5.25651C5.92953 5.25651 5.6935 5.2163 4.8214 4.39157C4.07203 3.68283 3.87513 3.12298 3.87513 1.70096V0.721236L3.21929 0.725065C2.79621 0.727475 2.42504 0.773349 2.17348 0.854178ZM5.36408 1.60978C5.36408 2.58256 5.4374 2.87078 5.77553 3.22707C5.88068 3.33782 6.08516 3.48941 6.2298 3.56385C6.47796 3.69148 6.6845 3.69906 9.88127 3.69758C13.0281 3.69616 13.2899 3.68666 13.5533 3.5647C13.7093 3.49253 13.923 3.34165 14.0281 3.22948C14.3668 2.8683 14.4396 2.58193 14.4396 1.60978V0.721236H9.90183H5.36408V1.60978ZM8.80653 13.6717C7.74257 13.8997 6.83715 14.4201 6.05191 15.2548C5.1355 16.2289 4.69257 17.3116 4.60826 18.7836L4.56253 19.5813H6.52539C8.33156 19.5813 8.49159 19.5713 8.53001 19.4572C8.77725 18.7226 9.48734 17.9215 10.1514 17.6278C11.2164 17.1568 12.5543 17.3505 13.4097 18.0996C13.7341 18.3837 14.1979 19.0752 14.2631 19.372C14.3083 19.5779 14.3166 19.5813 14.7751 19.5813H15.2412L15.197 18.8191C15.1103 17.3193 14.6695 16.2303 13.7564 15.2597C13.1882 14.6557 12.5721 14.2174 11.918 13.9515C10.974 13.568 9.78818 13.4613 8.80653 13.6717ZM10.8236 18.9814C10.5232 19.1162 10.2142 19.4001 10.0551 19.6876C9.94891 19.8793 9.9353 20.4074 9.91694 25.0461L9.89659 30.1919L8.22953 29.6371C7.31262 29.3318 6.44435 29.0829 6.30007 29.0837C5.23802 29.0901 4.5531 30.3685 5.12649 31.2741C5.20243 31.394 6.3 32.385 7.56546 33.4762L9.86638 35.4602L15.9463 35.4618L22.0261 35.4634L22.0247 31.4751C22.0239 29.173 21.993 27.2771 21.9517 26.9906C21.8679 26.4094 21.6555 26.0946 21.1763 25.8412C20.4052 25.4334 19.3719 25.8302 19.0812 26.6458L18.9836 26.9197L18.9805 26.5734C18.9757 26.0454 18.8343 25.6748 18.5155 25.3556C17.7901 24.6291 16.608 24.8199 16.1266 25.7413L15.9285 26.1204V25.7201C15.9285 24.7938 15.3249 24.1622 14.4396 24.1622C13.8139 24.1622 13.1838 24.5839 13.0393 25.0994C13.01 25.2036 12.9701 24.0924 12.9506 22.6301L12.9152 19.9712L12.7163 19.6329C12.4344 19.1532 12.0517 18.9188 11.5066 18.8917C11.2221 18.8776 10.9859 18.9086 10.8236 18.9814Z" fill="white"/>
</svg>
