<svg width="129" height="19" viewBox="0 0 129 19" fill="none" xmlns="http://www.w3.org/2000/svg">
<path d="M8.48469 0.334458C8.19065 0.5517 7.97386 0.857534 7.86613 1.20713L6.8402 4.56729C6.73531 4.92164 6.51908 5.23268 6.22361 5.45425C5.92813 5.67582 5.56917 5.7961 5.2 5.79723H1.71693C0.0767262 5.79723 -0.62622 7.90843 0.678346 8.92282L3.64212 11.2242C3.92096 11.443 4.12707 11.7413 4.23333 12.0796C4.33959 12.418 4.34101 12.7806 4.23741 13.1198L3.14182 16.7336C2.65419 18.3566 4.49072 19.6626 5.82062 18.6292L8.46141 16.5814C8.7583 16.3501 9.12378 16.2245 9.5 16.2245C9.87622 16.2245 10.2417 16.3501 10.5386 16.5814L13.1794 18.6356C14.5093 19.6626 16.3521 18.3566 15.8582 16.7336L14.7626 13.1262C14.6576 12.7861 14.6583 12.4221 14.7646 12.0825C14.8709 11.7428 15.0778 11.4435 15.3579 11.2242L18.3217 8.92282C19.6262 7.90843 18.9233 5.79723 17.2831 5.79723H13.7937C13.0464 5.79723 12.3814 5.29638 12.1598 4.56729L11.1339 1.20713C11.0261 0.857534 10.8094 0.5517 10.5153 0.334458C10.2213 0.117217 9.86544 0 9.5 0C9.13456 0 8.77873 0.117217 8.48469 0.334458Z" fill="#CCD000"/>
<path d="M35.9312 0.334458C35.6217 0.5517 35.3935 0.857534 35.2801 1.20713L34.2002 4.56729C34.0898 4.92164 33.8622 5.23268 33.5512 5.45425C33.2401 5.67582 32.8623 5.7961 32.4737 5.79723H28.8073C27.0808 5.79723 26.3408 7.90843 27.714 8.92282L30.8338 11.2242C31.1273 11.443 31.3443 11.7413 31.4561 12.0796C31.568 12.418 31.5695 12.7806 31.4604 13.1198L30.3072 16.7336C29.7939 18.3566 31.7271 19.6626 33.127 18.6292L35.9068 16.5814C36.2193 16.3501 36.604 16.2245 37 16.2245C37.396 16.2245 37.7807 16.3501 38.0932 16.5814L40.873 18.6356C42.2729 19.6626 44.2128 18.3566 43.6928 16.7336L42.5396 13.1262C42.429 12.7861 42.4298 12.4221 42.5417 12.0825C42.6536 11.7428 42.8714 11.4435 43.1662 11.2242L46.2859 8.92282C47.6592 7.90843 46.9192 5.79723 45.1927 5.79723H41.5197C40.733 5.79723 40.0331 5.29638 39.7998 4.56729L38.7199 1.20713C38.6065 0.857534 38.3783 0.5517 38.0688 0.334458C37.7592 0.117217 37.3847 0 37 0C36.6153 0 36.2408 0.117217 35.9312 0.334458Z" fill="#CCD000"/>
<path d="M63.4847 0.334458C63.1906 0.5517 62.9739 0.857534 62.8661 1.20713L61.8402 4.56729C61.7353 4.92164 61.5191 5.23268 61.2236 5.45425C60.9281 5.67582 60.5692 5.7961 60.2 5.79723H56.7169C55.0767 5.79723 54.3738 7.90843 55.6783 8.92282L58.6421 11.2242C58.921 11.443 59.1271 11.7413 59.2333 12.0796C59.3396 12.418 59.341 12.7806 59.2374 13.1198L58.1418 16.7336C57.6542 18.3566 59.4907 19.6626 60.8206 18.6292L63.4614 16.5814C63.7583 16.3501 64.1238 16.2245 64.5 16.2245C64.8762 16.2245 65.2417 16.3501 65.5386 16.5814L68.1794 18.6356C69.5093 19.6626 71.3521 18.3566 70.8582 16.7336L69.7626 13.1262C69.6576 12.7861 69.6583 12.4221 69.7646 12.0825C69.8709 11.7428 70.0778 11.4435 70.3579 11.2242L73.3217 8.92282C74.6262 7.90843 73.9233 5.79723 72.2831 5.79723H68.7937C68.0464 5.79723 67.3814 5.29638 67.1598 4.56729L66.1339 1.20713C66.0261 0.857534 65.8094 0.5517 65.5153 0.334458C65.2213 0.117217 64.8654 0 64.5 0C64.1346 0 63.7787 0.117217 63.4847 0.334458Z" fill="#CCD000"/>
<path d="M90.9312 0.334458C90.6217 0.5517 90.3935 0.857534 90.2801 1.20713L89.2002 4.56729C89.0898 4.92164 88.8622 5.23268 88.5512 5.45425C88.2401 5.67582 87.8623 5.7961 87.4737 5.79723H83.8073C82.0808 5.79723 81.3408 7.90843 82.714 8.92282L85.8338 11.2242C86.1273 11.443 86.3443 11.7413 86.4561 12.0796C86.568 12.418 86.5695 12.7806 86.4604 13.1198L85.3072 16.7336C84.7939 18.3566 86.7271 19.6626 88.127 18.6292L90.9068 16.5814C91.2193 16.3501 91.604 16.2245 92 16.2245C92.396 16.2245 92.7807 16.3501 93.0932 16.5814L95.873 18.6356C97.2729 19.6626 99.2128 18.3566 98.6928 16.7336L97.5396 13.1262C97.429 12.7861 97.4298 12.4221 97.5417 12.0825C97.6536 11.7428 97.8714 11.4435 98.1662 11.2242L101.286 8.92282C102.659 7.90843 101.919 5.79723 100.193 5.79723H96.5197C95.733 5.79723 95.0331 5.29638 94.7998 4.56729L93.7199 1.20713C93.6065 0.857534 93.3783 0.5517 93.0688 0.334458C92.7592 0.117217 92.3847 0 92 0C91.6153 0 91.2408 0.117217 90.9312 0.334458Z" fill="#CCD000"/>
<path d="M118.485 0.334458C118.191 0.5517 117.974 0.857534 117.866 1.20713L116.84 4.56729C116.735 4.92164 116.519 5.23268 116.224 5.45425C115.928 5.67582 115.569 5.7961 115.2 5.79723H111.717C110.077 5.79723 109.374 7.90843 110.678 8.92282L113.642 11.2242C113.921 11.443 114.127 11.7413 114.233 12.0796C114.34 12.418 114.341 12.7806 114.237 13.1198L113.142 16.7336C112.654 18.3566 114.491 19.6626 115.821 18.6292L118.461 16.5814C118.758 16.3501 119.124 16.2245 119.5 16.2245C119.876 16.2245 120.242 16.3501 120.539 16.5814L123.179 18.6356C124.509 19.6626 126.352 18.3566 125.858 16.7336L124.763 13.1262C124.658 12.7861 124.658 12.4221 124.765 12.0825C124.871 11.7428 125.078 11.4435 125.358 11.2242L128.322 8.92282C129.626 7.90843 128.923 5.79723 127.283 5.79723H123.794C123.046 5.79723 122.381 5.29638 122.16 4.56729L121.134 1.20713C121.026 0.857534 120.809 0.5517 120.515 0.334458C120.221 0.117217 119.865 0 119.5 0C119.135 0 118.779 0.117217 118.485 0.334458Z" fill="#CCD000"/>
</svg>
